999
"DXF R12 Output" (www.mydxf.blogspot.com)
 0 
SECTION
 2 
HEADER
 9 
$ACADVER
 1 
AC1009
 9 
$EXTMIN
 10 
 0 
 20 
 0 
 9 
$EXTMAX
 10 
 8.5 
 20 
 11 
 0 
ENDSEC
 0 
SECTION
 2 
ENTITIES
0
LINE
8
Layer 1
10
0.793749
20
297.794000
11
-0.793749
21
296.206000
0
LINE
8
Layer 1
10
0.000000
20
298.323000
11
0.000000
21
295.677000
0
LINE
8
Layer 1
10
2.116660
20
295.942000
11
1.058330
21
294.883670
0
LINE
8
Layer 1
10
1.587500
20
296.471000
11
0.529170
21
295.412670
0
LINE
8
Layer 1
10
1.058330
20
297.000000
11
0.000000
21
295.941670
0
LINE
8
Sketch5
10
173.761000
20
182.413000
11
173.207757
21
182.670916
0
LINE
8
Sketch5
10
121.208000
20
188.384000
11
120.708203
21
188.733937
0
LINE
8
Sketch5
10
118.958000
20
189.202000
11
118.350517
21
189.148845
0
LINE
8
Sketch5
10
125.351000
20
182.256000
11
124.761509
21
182.413824
0
LINE
8
Sketch5
10
163.639000
20
183.453000
11
163.207730
21
183.021597
0
LINE
8
Sketch5
10
116.708000
20
188.384000
11
116.276730
21
187.952597
0
LINE
8
Sketch5
10
115.927000
20
187.452000
11
115.669561
21
186.899074
0
LINE
8
Sketch5
10
123.277000
20
183.453000
11
122.926957
21
183.952744
0
LINE
8
Sketch5
10
162.708000
20
182.671000
11
162.154757
21
182.413084
0
LINE
8
Sketch5
10
121.639000
20
187.952000
11
121.207730
21
188.383403
0
LINE
8
Sketch5
10
118.351000
20
189.149000
11
117.761509
21
188.991070
0
LINE
8
Sketch5
10
115.511000
20
186.310000
11
115.457819
21
185.702226
0
LINE
8
Sketch5
10
117.761000
20
188.991000
11
117.207757
21
188.733190
0
LINE
8
Sketch5
10
120.708000
20
188.734000
11
120.154757
21
188.991810
0
LINE
8
Sketch5
10
117.208000
20
188.734000
11
116.708203
21
188.384063
0
LINE
8
Sketch5
10
115.458000
20
185.702000
11
115.404819
21
185.094226
0
LINE
8
Sketch5
10
115.405000
20
185.095000
11
115.246779
21
184.505721
0
LINE
8
Sketch5
10
115.247000
20
184.505000
11
114.989825
21
183.952074
0
LINE
8
Sketch5
10
114.989000
20
183.952000
11
114.638957
21
183.452229
0
LINE
8
Sketch5
10
115.669000
20
186.899000
11
115.510779
21
186.309721
0
LINE
8
Sketch5
10
120.155000
20
188.991000
11
119.565509
21
189.148930
0
LINE
8
Sketch5
10
119.565000
20
189.149000
11
118.957782
21
189.202155
0
LINE
8
Sketch5
10
164.926000
20
187.452000
11
164.668825
21
186.899074
0
LINE
8
Sketch5
10
163.208000
20
183.021000
11
162.708203
21
182.671115
0
LINE
8
Sketch5
10
116.277000
20
187.952000
11
115.926957
21
187.452229
0
LINE
8
Sketch5
10
114.639000
20
183.453000
11
114.207730
21
183.021597
0
LINE
8
Sketch5
10
114.208000
20
183.021000
11
113.707938
21
182.671115
0
LINE
8
Sketch5
10
113.708000
20
182.671000
11
113.154757
21
182.413084
0
LINE
8
Sketch5
10
164.511000
20
186.310000
11
164.458083
21
185.702226
0
LINE
8
Sketch5
10
164.405000
20
185.095000
11
164.246515
21
184.505721
0
LINE
8
Sketch5
10
162.155000
20
182.413000
11
161.565509
21
182.255176
0
LINE
8
Sketch5
10
160.958000
20
182.202000
11
126.075000
21
182.202000
0
LINE
8
Sketch5
10
122.927000
20
183.952000
11
122.669825
21
184.504952
0
LINE
8
Sketch5
10
122.458000
20
185.702000
11
122.404819
21
186.309774
0
LINE
8
Sketch5
10
165.275000
20
187.951000
11
164.926015
21
187.452896
0
LINE
8
Sketch5
10
164.669000
20
186.899000
11
164.510515
21
186.309721
0
LINE
8
Sketch5
10
126.075000
20
182.202000
11
125.958000
21
182.202000
0
LINE
8
Sketch5
10
161.565000
20
182.256000
11
160.957517
21
182.202792
0
LINE
8
Sketch5
10
125.958000
20
182.202000
11
125.350782
21
182.255208
0
LINE
8
Sketch5
10
124.761000
20
182.413000
11
124.207757
21
182.670916
0
LINE
8
Sketch5
10
164.458000
20
185.702000
11
164.404819
21
185.094226
0
LINE
8
Sketch5
10
122.405000
20
186.310000
11
122.246779
21
186.899279
0
LINE
8
Sketch5
10
124.208000
20
182.671000
11
123.707938
21
183.020885
0
LINE
8
Sketch5
10
122.669000
20
184.505000
11
122.510779
21
185.094279
0
LINE
8
Sketch5
10
122.511000
20
185.095000
11
122.457819
21
185.702774
0
LINE
8
Sketch5
10
164.246000
20
184.505000
11
163.988825
21
183.952074
0
LINE
8
Sketch5
10
163.989000
20
183.952000
11
163.638957
21
183.452229
0
LINE
8
Sketch5
10
122.247000
20
186.899000
11
121.989561
21
187.451926
0
LINE
8
Sketch5
10
121.989000
20
187.452000
11
121.638957
21
187.951771
0
LINE
8
Sketch5
10
123.708000
20
183.021000
11
123.276730
21
183.452403
0
LINE
8
Sketch5
10
19.208200
20
188.734000
11
18.708403
21
188.384063
0
LINE
8
Sketch5
10
65.639300
20
183.453000
11
65.208030
21
183.021597
0
LINE
8
Sketch5
10
66.405000
20
185.095000
11
66.246779
21
184.505721
0
LINE
8
Sketch5
10
27.958200
20
182.202000
11
27.350982
21
182.255208
0
LINE
8
Sketch5
10
24.458300
20
185.702000
11
24.405100
21
186.310000
0
LINE
8
Sketch5
10
113.155000
20
182.413000
11
112.565509
21
182.255176
0
LINE
8
Sketch5
10
23.989500
20
187.452000
11
23.639457
21
187.951771
0
LINE
8
Sketch5
10
66.458200
20
185.702000
11
66.405019
21
185.094226
0
LINE
8
Sketch5
10
65.208100
20
183.021000
11
64.708303
21
182.671115
0
LINE
8
Sketch5
10
77.074900
20
182.202000
11
76.958200
21
182.202000
0
LINE
8
Sketch5
10
28.074900
20
182.202000
11
27.958200
21
182.202000
0
LINE
8
Sketch5
10
64.708300
20
182.671000
11
64.155057
21
182.413084
0
LINE
8
Sketch5
10
27.351000
20
182.256000
11
26.761509
21
182.413824
0
LINE
8
Sketch5
10
24.511500
20
185.095000
11
24.458319
21
185.702774
0
LINE
8
Sketch5
10
62.958100
20
182.202000
11
28.074900
21
182.202000
0
LINE
8
Sketch5
10
23.639400
20
187.952000
11
23.208130
21
188.383403
0
LINE
8
Sketch5
10
69.958100
20
189.202000
11
69.350882
21
189.148845
0
LINE
8
Sketch5
10
23.208200
20
188.384000
11
22.708403
21
188.733937
0
LINE
8
Sketch5
10
72.989500
20
187.452000
11
72.639457
21
187.951771
0
LINE
8
Sketch5
10
68.208200
20
188.734000
11
67.708138
21
188.384063
0
LINE
8
Sketch5
10
74.708200
20
183.021000
11
74.276930
21
183.452403
0
LINE
8
Sketch5
10
73.458000
20
185.702000
11
73.405083
21
186.309774
0
LINE
8
Sketch5
10
21.565600
20
189.149000
11
20.958382
21
189.202155
0
LINE
8
Sketch5
10
20.958400
20
189.202000
11
20.350917
21
189.148845
0
LINE
8
Sketch5
10
74.276900
20
183.453000
11
73.926857
21
183.952744
0
LINE
8
Sketch5
10
70.565300
20
189.149000
11
69.958082
21
189.202155
0
LINE
8
Sketch5
10
71.155100
20
188.991000
11
70.565344
21
189.148930
0
LINE
8
Sketch5
10
20.350900
20
189.149000
11
19.761409
21
188.991070
0
LINE
8
Sketch5
10
72.639400
20
187.952000
11
72.208130
21
188.383403
0
LINE
8
Sketch5
10
66.926800
20
187.452000
11
66.669625
21
186.899074
0
LINE
8
Sketch5
10
76.958200
20
182.202000
11
76.350717
21
182.255208
0
LINE
8
Sketch5
10
66.246800
20
184.505000
11
65.989361
21
183.952074
0
LINE
8
Sketch5
10
25.708200
20
183.021000
11
25.276930
21
183.452403
0
LINE
8
Sketch5
10
24.405100
20
186.310000
11
24.246879
21
186.899279
0
LINE
8
Sketch5
10
19.761400
20
188.991000
11
19.208157
21
188.733190
0
LINE
8
Sketch5
10
64.155000
20
182.413000
11
63.565509
21
182.255176
0
LINE
8
Sketch5
10
112.565000
20
182.256000
11
111.957782
21
182.202792
0
LINE
8
Sketch5
10
75.208200
20
182.671000
11
74.708138
21
183.020885
0
LINE
8
Sketch5
10
71.708100
20
188.734000
11
71.155122
21
188.991810
0
LINE
8
Sketch5
10
111.958000
20
182.202000
11
77.074900
21
182.202000
0
LINE
8
Sketch5
10
73.926900
20
183.952000
11
73.669725
21
184.504952
0
LINE
8
Sketch5
10
68.761200
20
188.991000
11
68.208222
21
188.733190
0
LINE
8
Sketch5
10
67.708100
20
188.384000
11
67.276830
21
187.952597
0
LINE
8
Sketch5
10
67.276800
20
187.952000
11
66.926757
21
187.452229
0
LINE
8
Sketch5
10
66.669600
20
186.899000
11
66.511379
21
186.309721
0
LINE
8
Sketch5
10
66.511400
20
186.310000
11
66.458219
21
185.702226
0
LINE
8
Sketch5
10
65.989400
20
183.952000
11
65.639357
21
183.452229
0
LINE
8
Sketch5
10
75.761200
20
182.413000
11
75.208222
21
182.670916
0
LINE
8
Sketch5
10
73.511200
20
185.095000
11
73.458019
21
185.702774
0
LINE
8
Sketch5
10
26.761500
20
182.413000
11
26.208257
21
182.670916
0
LINE
8
Sketch5
10
25.276900
20
183.453000
11
24.927121
21
183.952744
0
LINE
8
Sketch5
10
24.927200
20
183.952000
11
24.669700
21
184.505000
0
LINE
8
Sketch5
10
24.669700
20
184.505000
11
24.511479
21
185.094279
0
LINE
8
Sketch5
10
76.350700
20
182.256000
11
75.761209
21
182.413824
0
LINE
8
Sketch5
10
26.208300
20
182.671000
11
25.708238
21
183.020885
0
LINE
8
Sketch5
10
72.208100
20
188.384000
11
71.708038
21
188.733937
0
LINE
8
Sketch5
10
24.246900
20
186.899000
11
23.989461
21
187.451926
0
LINE
8
Sketch5
10
73.669700
20
184.505000
11
73.511215
21
185.094279
0
LINE
8
Sketch5
10
73.405100
20
186.310000
11
73.246615
21
186.899279
0
LINE
8
Sketch5
10
69.350900
20
189.149000
11
68.761144
21
188.991070
0
LINE
8
Sketch5
10
73.246600
20
186.899000
11
72.989425
21
187.451926
0
LINE
8
Sketch5
10
63.565500
20
182.256000
11
62.958017
21
182.202792
0
LINE
8
Sketch5
10
22.708400
20
188.734000
11
22.155157
21
188.991810
0
LINE
8
Sketch5
10
22.155100
20
188.991000
11
21.565609
21
189.148930
0
LINE
8
Sketch5
10
363.644000
20
164.203000
11
364.957000
21
164.203000
0
LINE
8
Sketch5
10
-29.041400
20
164.228000
11
-29.041400
21
164.203000
0
LINE
8
Sketch5
10
364.967000
20
181.702000
11
364.957000
21
181.702000
0
LINE
8
Sketch5
10
-25.360300
20
187.952000
11
-25.791570
21
188.383403
0
LINE
8
Sketch5
10
-27.434300
20
189.149000
11
-28.041518
21
189.202155
0
LINE
8
Sketch5
10
-29.041400
20
181.727000
11
-29.041400
21
181.703000
0
LINE
8
Sketch5
10
-25.791600
20
188.384000
11
-26.291662
21
188.733937
0
LINE
8
Sketch5
10
-24.330000
20
184.505000
11
-24.488485
21
185.094279
0
LINE
8
Sketch5
10
-26.291600
20
188.734000
11
-26.844578
21
188.991810
0
LINE
8
Sketch5
10
15.708300
20
182.671000
11
15.155322
21
182.413084
0
LINE
8
Sketch5
10
-24.488500
20
185.095000
11
-24.541681
21
185.702774
0
LINE
8
Sketch5
10
16.639600
20
183.453000
11
16.208330
21
183.021597
0
LINE
8
Sketch5
10
-23.722800
20
183.453000
11
-24.072843
21
183.952744
0
LINE
8
Sketch5
10
-29.052000
20
171.702000
11
-29.041400
21
171.702000
0
LINE
8
Sketch5
10
13.958300
20
182.202000
11
-20.924800
21
182.202000
0
LINE
8
Sketch5
10
-20.924800
20
182.202000
11
-21.041500
21
182.202000
0
LINE
8
Sketch5
10
-29.038500
20
189.202000
11
-29.041146
21
181.727030
0
LINE
8
Sketch5
10
364.957000
20
171.677000
11
364.957000
21
171.702000
0
LINE
8
Sketch5
10
-26.844600
20
188.991000
11
-27.434356
21
189.148930
0
LINE
8
Sketch5
10
-22.791400
20
182.671000
11
-23.291462
21
183.020885
0
LINE
8
Sketch5
10
16.989700
20
183.952000
11
16.639657
21
183.452229
0
LINE
8
Sketch5
10
-24.594600
20
186.310000
11
-24.753085
21
186.899279
0
LINE
8
Sketch5
10
-29.041400
20
164.203000
11
363.644000
21
164.203000
0
LINE
8
Sketch5
10
364.957000
20
164.203000
11
364.957000
21
171.677000
0
LINE
8
Sketch5
10
-25.010200
20
187.452000
11
-25.360243
21
187.951771
0
LINE
8
Sketch5
10
-38.041500
20
181.721000
11
-38.041500
21
171.689000
0
LINE
8
Sketch5
10
-24.072800
20
183.952000
11
-24.329975
21
184.504952
0
LINE
8
Sketch5
10
18.277100
20
187.952000
11
17.927057
21
187.452229
0
LINE
8
Sketch5
10
17.246800
20
184.505000
11
16.989625
21
183.952074
0
LINE
8
Sketch5
10
364.957000
20
181.702000
11
364.957000
21
189.177000
0
LINE
8
Sketch5
10
17.458200
20
185.702000
11
17.405019
21
185.094226
0
LINE
8
Sketch5
10
17.927100
20
187.452000
11
17.669661
21
186.899074
0
LINE
8
Sketch5
10
17.511400
20
186.310000
11
17.458219
21
185.702226
0
LINE
8
Sketch5
10
-24.541700
20
185.702000
11
-24.594617
21
186.309774
0
LINE
8
Sketch5
10
-29.041400
20
181.702000
11
-38.058600
21
181.702000
0
LINE
8
Sketch5
10
-29.041400
20
171.702000
11
-29.041400
21
164.228000
0
LINE
8
Sketch5
10
364.957000
20
189.202000
11
363.961000
21
189.202000
0
LINE
8
Sketch5
10
363.349000
20
189.149000
11
362.759774
21
188.991070
0
LINE
8
Sketch5
10
362.760000
20
188.991000
11
362.207022
21
188.733190
0
LINE
8
Sketch5
10
17.669600
20
186.899000
11
17.511379
21
186.309721
0
LINE
8
Sketch5
10
-21.649000
20
182.256000
11
-22.238491
21
182.413824
0
LINE
8
Sketch5
10
16.208400
20
183.021000
11
15.708338
21
182.671115
0
LINE
8
Sketch5
10
15.155300
20
182.413000
11
14.565544
21
182.255176
0
LINE
8
Sketch5
10
362.207000
20
188.734000
11
361.707203
21
188.384063
0
LINE
8
Sketch5
10
361.276000
20
187.952000
11
360.926221
21
187.452229
0
LINE
8
Sketch5
10
-22.238500
20
182.413000
11
-22.791478
21
182.670916
0
LINE
8
Sketch5
10
-24.753100
20
186.899000
11
-25.010275
21
187.451926
0
LINE
8
Sketch5
10
14.565600
20
182.256000
11
13.958382
21
182.202792
0
LINE
8
Sketch5
10
-28.041600
20
189.202000
11
-29.038500
21
189.202000
0
LINE
8
Sketch5
10
-32.041500
20
171.736000
11
-32.041500
21
171.702000
0
LINE
8
Sketch5
10
18.708400
20
188.384000
11
18.277130
21
187.952597
0
LINE
8
Sketch5
10
-32.031200
20
181.702000
11
-32.041800
21
181.702000
0
LINE
8
Sketch5
10
-21.041500
20
182.202000
11
-21.648983
21
182.255208
0
LINE
8
Sketch5
10
364.957000
20
189.177000
11
364.957000
21
189.202000
0
LINE
8
Sketch5
10
363.961000
20
189.202000
11
363.349813
21
189.148845
0
LINE
8
Sketch5
10
17.405100
20
185.095000
11
17.246879
21
184.505721
0
LINE
8
Sketch5
10
361.707000
20
188.384000
11
361.275465
21
187.952597
0
LINE
8
Sketch5
10
-23.291500
20
183.021000
11
-23.722770
21
183.452403
0
LINE
8
Sketch5
10
-38.064500
20
171.712000
11
-29.016500
21
171.712000
0
LINE
8
Sketch5
10
270.276000
20
183.453000
11
269.926221
21
183.952744
0
LINE
8
Sketch5
10
311.457000
20
185.702000
11
311.403819
21
185.094226
0
LINE
8
Sketch5
10
311.926000
20
187.452000
11
311.668032
21
186.899074
0
LINE
8
Sketch5
10
309.154000
20
182.413000
11
308.564774
21
182.255176
0
LINE
8
Sketch5
10
360.926000
20
187.452000
11
360.668032
21
186.899074
0
LINE
8
Sketch5
10
359.988000
20
183.952000
11
359.638221
21
183.452229
0
LINE
8
Sketch5
10
269.669000
20
184.505000
11
269.511044
21
185.094279
0
LINE
8
Sketch5
10
312.276000
20
187.952000
11
311.926221
21
187.452229
0
LINE
8
Sketch5
10
311.404000
20
185.095000
11
311.246044
21
184.505721
0
LINE
8
Sketch5
10
358.707000
20
182.671000
11
358.154286
21
182.413084
0
LINE
8
Sketch5
10
309.707000
20
182.671000
11
309.154022
21
182.413084
0
LINE
8
Sketch5
10
311.246000
20
184.505000
11
310.988296
21
183.952074
0
LINE
8
Sketch5
10
308.565000
20
182.256000
11
307.957253
21
182.202792
0
LINE
8
Sketch5
10
269.511000
20
185.095000
11
269.457819
21
185.702774
0
LINE
8
Sketch5
10
310.207000
20
183.021000
11
309.707203
21
182.671115
0
LINE
8
Sketch5
10
269.457000
20
185.702000
11
269.403819
21
186.309774
0
LINE
8
Sketch5
10
317.207000
20
188.384000
11
316.707203
21
188.733937
0
LINE
8
Sketch5
10
269.404000
20
186.310000
11
269.246309
21
186.899279
0
LINE
8
Sketch5
10
318.511000
20
185.095000
11
318.457819
21
185.702774
0
LINE
8
Sketch5
10
315.565000
20
189.149000
11
314.956988
21
189.202155
0
LINE
8
Sketch5
10
321.957000
20
182.202000
11
321.349253
21
182.255208
0
LINE
8
Sketch5
10
319.276000
20
183.453000
11
318.925957
21
183.952744
0
LINE
8
Sketch5
10
269.247000
20
186.899000
11
268.989032
21
187.451926
0
LINE
8
Sketch5
10
360.457000
20
185.702000
11
360.403819
21
185.094226
0
LINE
8
Sketch5
10
321.350000
20
182.256000
11
320.760774
21
182.413824
0
LINE
8
Sketch5
10
317.639000
20
187.952000
11
317.207730
21
188.383403
0
LINE
8
Sketch5
10
360.668000
20
186.899000
11
360.510309
21
186.309721
0
LINE
8
Sketch5
10
317.988000
20
187.452000
11
317.638221
21
187.951771
0
LINE
8
Sketch5
10
318.457000
20
185.702000
11
318.403819
21
186.309774
0
LINE
8
Sketch5
10
313.760000
20
188.991000
11
313.207022
21
188.733190
0
LINE
8
Sketch5
10
358.154000
20
182.413000
11
357.564509
21
182.255176
0
LINE
8
Sketch5
10
311.668000
20
186.899000
11
311.510044
21
186.309721
0
LINE
8
Sketch5
10
272.958000
20
182.202000
11
272.349988
21
182.255208
0
LINE
8
Sketch5
10
269.927000
20
183.952000
11
269.669032
21
184.504952
0
LINE
8
Sketch5
10
270.708000
20
183.021000
11
270.276730
21
183.452403
0
LINE
8
Sketch5
10
310.988000
20
183.952000
11
310.637957
21
183.452229
0
LINE
8
Sketch5
10
359.638000
20
183.453000
11
359.206465
21
183.021597
0
LINE
8
Sketch5
10
322.074000
20
182.202000
11
321.957000
21
182.202000
0
LINE
8
Sketch5
10
318.246000
20
186.899000
11
317.988032
21
187.451926
0
LINE
8
Sketch5
10
359.207000
20
183.021000
11
358.707203
21
182.671115
0
LINE
8
Sketch5
10
320.760000
20
182.413000
11
320.207022
21
182.670916
0
LINE
8
Sketch5
10
316.154000
20
188.991000
11
315.564774
21
189.148930
0
LINE
8
Sketch5
10
314.957000
20
189.202000
11
314.349253
21
189.148845
0
LINE
8
Sketch5
10
314.349000
20
189.149000
11
313.759774
21
188.991070
0
LINE
8
Sketch5
10
313.207000
20
188.734000
11
312.707203
21
188.384063
0
LINE
8
Sketch5
10
312.707000
20
188.384000
11
312.275730
21
187.952597
0
LINE
8
Sketch5
10
360.510000
20
186.310000
11
360.456819
21
185.702226
0
LINE
8
Sketch5
10
356.957000
20
182.202000
11
322.074000
21
182.202000
0
LINE
8
Sketch5
10
319.708000
20
183.021000
11
319.276730
21
183.452403
0
LINE
8
Sketch5
10
311.510000
20
186.310000
11
311.456819
21
185.702226
0
LINE
8
Sketch5
10
307.957000
20
182.202000
11
273.074000
21
182.202000
0
LINE
8
Sketch5
10
272.350000
20
182.256000
11
271.760774
21
182.413824
0
LINE
8
Sketch5
10
271.760000
20
182.413000
11
271.207022
21
182.670916
0
LINE
8
Sketch5
10
360.404000
20
185.095000
11
360.246044
21
184.505721
0
LINE
8
Sketch5
10
357.565000
20
182.256000
11
356.957253
21
182.202792
0
LINE
8
Sketch5
10
318.404000
20
186.310000
11
318.246044
21
186.899279
0
LINE
8
Sketch5
10
273.074000
20
182.202000
11
272.958000
21
182.202000
0
LINE
8
Sketch5
10
320.207000
20
182.671000
11
319.707203
21
183.020885
0
LINE
8
Sketch5
10
318.926000
20
183.952000
11
318.668032
21
184.504952
0
LINE
8
Sketch5
10
316.707000
20
188.734000
11
316.154022
21
188.991810
0
LINE
8
Sketch5
10
318.668000
20
184.505000
11
318.510309
21
185.094279
0
LINE
8
Sketch5
10
360.246000
20
184.505000
11
359.988032
21
183.952074
0
LINE
8
Sketch5
10
310.638000
20
183.453000
11
310.206730
21
183.021597
0
LINE
8
Sketch5
10
271.207000
20
182.671000
11
270.707203
21
183.020885
0
LINE
8
Sketch5
10
213.926000
20
187.452000
11
213.668561
21
186.899074
0
LINE
8
Sketch5
10
213.669000
20
186.899000
11
213.510779
21
186.309721
0
LINE
8
Sketch5
10
220.405000
20
186.310000
11
220.246779
21
186.899279
0
LINE
8
Sketch5
10
262.404000
20
185.095000
11
262.246044
21
184.505721
0
LINE
8
Sketch5
10
261.207000
20
183.021000
11
260.707203
21
182.671115
0
LINE
8
Sketch5
10
259.565000
20
182.256000
11
258.957517
21
182.202792
0
LINE
8
Sketch5
10
262.246000
20
184.505000
11
261.988032
21
183.952074
0
LINE
8
Sketch5
10
263.708000
20
188.384000
11
263.276730
21
187.952597
0
LINE
8
Sketch5
10
261.988000
20
183.952000
11
261.638221
21
183.452229
0
LINE
8
Sketch5
10
263.276000
20
187.952000
11
262.925957
21
187.452229
0
LINE
8
Sketch5
10
220.926000
20
183.952000
11
220.668825
21
184.504952
0
LINE
8
Sketch5
10
220.246000
20
186.899000
11
219.988561
21
187.451926
0
LINE
8
Sketch5
10
264.761000
20
188.991000
11
264.208022
21
188.733190
0
LINE
8
Sketch5
10
220.511000
20
185.095000
11
220.457819
21
185.702774
0
LINE
8
Sketch5
10
218.155000
20
188.991000
11
217.565509
21
189.148930
0
LINE
8
Sketch5
10
222.761000
20
182.413000
11
222.207757
21
182.670916
0
LINE
8
Sketch5
10
268.639000
20
187.952000
11
268.207730
21
188.383403
0
LINE
8
Sketch5
10
268.207000
20
188.384000
11
267.707203
21
188.733937
0
LINE
8
Sketch5
10
260.154000
20
182.413000
11
259.564509
21
182.255176
0
LINE
8
Sketch5
10
220.669000
20
184.505000
11
220.510779
21
185.094279
0
LINE
8
Sketch5
10
221.708000
20
183.021000
11
221.276730
21
183.452403
0
LINE
8
Sketch5
10
261.639000
20
183.453000
11
261.207465
21
183.021597
0
LINE
8
Sketch5
10
265.958000
20
189.202000
11
265.350253
21
189.148845
0
LINE
8
Sketch5
10
262.668000
20
186.899000
11
262.510044
21
186.309721
0
LINE
8
Sketch5
10
219.208000
20
188.384000
11
218.708203
21
188.733937
0
LINE
8
Sketch5
10
217.565000
20
189.149000
11
216.957517
21
189.202155
0
LINE
8
Sketch5
10
219.989000
20
187.452000
11
219.638957
21
187.951771
0
LINE
8
Sketch5
10
262.458000
20
185.702000
11
262.404819
21
185.094226
0
LINE
8
Sketch5
10
216.958000
20
189.202000
11
216.350782
21
189.148845
0
LINE
8
Sketch5
10
264.208000
20
188.734000
11
263.708203
21
188.384063
0
LINE
8
Sketch5
10
215.761000
20
188.991000
11
215.207757
21
188.733190
0
LINE
8
Sketch5
10
213.511000
20
186.310000
11
213.457819
21
185.702226
0
LINE
8
Sketch5
10
213.458000
20
185.702000
11
213.404819
21
185.094226
0
LINE
8
Sketch5
10
213.404000
20
185.095000
11
213.245779
21
184.505721
0
LINE
8
Sketch5
10
262.926000
20
187.452000
11
262.668032
21
186.899074
0
LINE
8
Sketch5
10
213.246000
20
184.505000
11
212.988825
21
183.952074
0
LINE
8
Sketch5
10
212.989000
20
183.952000
11
212.638957
21
183.452229
0
LINE
8
Sketch5
10
212.639000
20
183.453000
11
212.207730
21
183.021597
0
LINE
8
Sketch5
10
258.957000
20
182.202000
11
224.074000
21
182.202000
0
LINE
8
Sketch5
10
214.708000
20
188.384000
11
214.276730
21
187.952597
0
LINE
8
Sketch5
10
212.208000
20
183.021000
11
211.707938
21
182.671115
0
LINE
8
Sketch5
10
211.708000
20
182.671000
11
211.154757
21
182.413084
0
LINE
8
Sketch5
10
211.154000
20
182.413000
11
210.564509
21
182.255176
0
LINE
8
Sketch5
10
210.565000
20
182.256000
11
209.957782
21
182.202792
0
LINE
8
Sketch5
10
267.154000
20
188.991000
11
266.564774
21
189.148930
0
LINE
8
Sketch5
10
209.958000
20
182.202000
11
175.075000
21
182.202000
0
LINE
8
Sketch5
10
219.639000
20
187.952000
11
219.207730
21
188.383403
0
LINE
8
Sketch5
10
214.277000
20
187.952000
11
213.926957
21
187.452229
0
LINE
8
Sketch5
10
175.075000
20
182.202000
11
174.958000
21
182.202000
0
LINE
8
Sketch5
10
266.565000
20
189.149000
11
265.957253
21
189.202155
0
LINE
8
Sketch5
10
262.511000
20
186.310000
11
262.458083
21
185.702226
0
LINE
8
Sketch5
10
268.989000
20
187.452000
11
268.638957
21
187.951771
0
LINE
8
Sketch5
10
260.707000
20
182.671000
11
260.154022
21
182.413084
0
LINE
8
Sketch5
10
223.958000
20
182.202000
11
223.350782
21
182.255208
0
LINE
8
Sketch5
10
220.458000
20
185.702000
11
220.404819
21
186.309774
0
LINE
8
Sketch5
10
222.208000
20
182.671000
11
221.707938
21
183.020885
0
LINE
8
Sketch5
10
224.074000
20
182.202000
11
223.958000
21
182.202000
0
LINE
8
Sketch5
10
267.707000
20
188.734000
11
267.154022
21
188.991810
0
LINE
8
Sketch5
10
221.276000
20
183.453000
11
220.925957
21
183.952744
0
LINE
8
Sketch5
10
218.708000
20
188.734000
11
218.154757
21
188.991810
0
LINE
8
Sketch5
10
216.350000
20
189.149000
11
215.760509
21
188.991070
0
LINE
8
Sketch5
10
215.208000
20
188.734000
11
214.708203
21
188.384063
0
LINE
8
Sketch5
10
265.350000
20
189.149000
11
264.760774
21
188.991070
0
LINE
8
Sketch5
10
223.350000
20
182.256000
11
222.760509
21
182.413824
0
LINE
8
Sketch5
10
174.958000
20
182.202000
11
174.350517
21
182.255208
0
LINE
8
Sketch5
10
174.350000
20
182.256000
11
173.760509
21
182.413824
0
LINE
8
Sketch5
10
168.565000
20
189.149000
11
167.957782
21
189.202155
0
LINE
8
Sketch5
10
172.277000
20
183.453000
11
171.926957
21
183.952744
0
LINE
8
Sketch5
10
167.958000
20
189.202000
11
167.350782
21
189.148845
0
LINE
8
Sketch5
10
169.708000
20
188.734000
11
169.155022
21
188.991810
0
LINE
8
Sketch5
10
171.511000
20
185.095000
11
171.457819
21
185.702774
0
LINE
8
Sketch5
10
171.458000
20
185.702000
11
171.405083
21
186.309774
0
LINE
8
Sketch5
10
170.639000
20
187.952000
11
170.207730
21
188.383403
0
LINE
8
Sketch5
10
166.761000
20
188.991000
11
166.208022
21
188.733190
0
LINE
8
Sketch5
10
165.708000
20
188.384000
11
165.276730
21
187.952597
0
LINE
8
Sketch5
10
169.155000
20
188.991000
11
168.565244
21
189.148930
0
LINE
8
Sketch5
10
167.351000
20
189.149000
11
166.761244
21
188.991070
0
LINE
8
Sketch5
10
173.208000
20
182.671000
11
172.708203
21
183.020885
0
LINE
8
Sketch5
10
171.246000
20
186.899000
11
170.988825
21
187.451926
0
LINE
8
Sketch5
10
171.927000
20
183.952000
11
171.669000
21
184.505000
0
LINE
8
Sketch5
10
170.989000
20
187.452000
11
170.638957
21
187.951771
0
LINE
8
Sketch5
10
166.208000
20
188.734000
11
165.707938
21
188.384063
0
LINE
8
Sketch5
10
171.669000
20
184.505000
11
171.510515
21
185.094279
0
LINE
8
Sketch5
10
172.708000
20
183.021000
11
172.276730
21
183.452403
0
LINE
8
Sketch5
10
171.405000
20
186.310000
11
171.246515
21
186.899279
0
LINE
8
Sketch5
10
170.208000
20
188.384000
11
169.707938
21
188.733937
0
LINE
8
Sketch5
10
364.942000
20
181.726000
11
364.942000
21
181.701000
0
LINE
8
Sketch5
10
364.952000
20
171.701000
11
364.942000
21
171.701000
0
LINE
8
Sketch5
10
373.942000
20
181.719000
11
373.942000
21
171.687000
0
LINE
8
Sketch5
10
364.942000
20
181.701000
11
373.959000
21
181.701000
0
LINE
8
Sketch5
10
367.942000
20
171.734000
11
367.942000
21
171.701000
0
LINE
8
Sketch5
10
367.931000
20
181.701000
11
367.942000
21
181.701000
0
LINE
8
Sketch5
10
373.965000
20
171.710000
11
364.917000
21
171.710000
0
LINE
8
Sketch5
10
125.043000
20
244.447000
11
135.018610
21
243.194620
0
LINE
8
Sketch5
10
135.018610
20
243.194620
11
135.040147
21
240.517070
0
LINE
8
Sketch5
10
135.040147
20
240.517070
11
125.090577
21
239.278000
0
LINE
8
Sketch5
10
125.090577
20
239.278000
11
125.043000
21
244.447000
 0 
ENDSEC
 0 
EOF