<?xml version="1.0"?>
<!DOCTYPE svg PUBLIC "-//W3C//DTD SVG 1.1//EN" "http://www.w3.org/Graphics/SVG/1.1/DTD/svg11.dtd">
<svg width="101.99999999999785mm" height="2.0000000000001643mm" viewBox="0 0 101.99999999999785 2.0000000000001643" xmlns="http://www.w3.org/2000/svg" version="1.1">
<g id="Facebinder" transform="translate(4.000000,-2.000000) scale(1,-1)">
<path id="Facebinder_f0000"  d="M -2.999999999997883 -2.9999999999999423 L -2.999999999997883 -3.0 L 7.0 -3.0 A 7 7 0 0 0 -7 14L 80.0 -2.9999999999999982 A 7 7 0 0 0 -3.49086e-15 87L 97.0 -3.0 L 96.99999999999893 -2.9999999999999423 A 40 40 0 0 1 -300 57L 37.00000000000212 -2.9999999999999334 A 40 40 0 0 1 -260 -3Z M -9.440892116638095e-16 -2.999999999999957 L -1e-15 -2.9999999999999507 L 2.999999999999999 -2.9999999999999507 L 2.999999999999998 -2.999999999999957 L -9.440892116638095e-16 -2.999999999999957 Z M 2.9999999999999987 -2.9999999999999587 L 2.999999999999998 -2.999999999999957 L 12.999999999999998 -2.999999999999957 L 12.999999999999998 -2.9999999999999587 L 2.9999999999999987 -2.9999999999999587 Z M 2.999999999999998 -2.999999999999904 L -9.440892080363158e-16 -2.999999999999904 L -1e-15 -2.999999999999897 L 2.999999999999999 -2.999999999999897 L 2.999999999999998 -2.999999999999904 Z M 2.9999999999999987 -2.999999999999906 L 2.999999999999998 -2.999999999999904 L 12.999999999999998 -2.999999999999904 L 12.999999999999998 -2.999999999999906 L 2.9999999999999987 -2.999999999999906 Z M 27.0 -2.9999999999999587 L 27.0 -2.999999999999957 L 37.0 -2.999999999999957 L 37.0 -2.9999999999999587 L 27.0 -2.9999999999999587 Z M 27.0 -2.999999999999906 L 27.0 -2.999999999999904 L 37.0 -2.999999999999904 L 37.0 -2.999999999999906 L 27.0 -2.999999999999906 Z M 2.999999999999998 -2.999999999999851 L -9.440892080363158e-16 -2.999999999999851 L -1e-15 -2.9999999999998446 L 2.999999999999999 -2.9999999999998446 L 2.999999999999998 -2.999999999999851 Z M 2.9999999999999987 -2.999999999999852 L 2.999999999999998 -2.999999999999851 L 12.999999999999998 -2.999999999999851 L 12.999999999999998 -2.999999999999852 L 2.9999999999999987 -2.999999999999852 Z M 2.9999999999999982 -2.999999999999802 L 2.999999999999998 -2.9999999999997993 L 13.0 -2.9999999999997993 L 13.0 -2.999999999999802 L 2.9999999999999982 -2.999999999999802 Z M 2.999999999999998 -2.9999999999997993 L -9.440892080363158e-16 -2.9999999999997993 L -1e-15 -2.999999999999793 L 2.999999999999998 -2.999999999999793 L 2.999999999999998 -2.9999999999997993 Z M 27.0 -2.999999999999852 L 27.0 -2.999999999999851 L 37.0 -2.999999999999851 L 37.0 -2.999999999999852 L 27.0 -2.999999999999852 Z M 56.99999999999786 -2.99999999999994 L 37.00000000000212 -2.99999999999994 A 10 10 0 1 0 -290 37L 56.99999999999924 -2.9999999999999356 A 10 10 0 0 0 -270 57Z M 94.00000000000003 -2.999999999999954 L 91.00000000000003 -2.999999999999954 L 91.00000000000003 -2.9999999999999467 L 94.00000000000003 -2.9999999999999467 L 94.00000000000003 -2.999999999999954 Z M 94.00000000000003 -2.9999999999999 L 91.00000000000003 -2.9999999999999 L 91.00000000000003 -2.999999999999894 L 94.00000000000003 -2.999999999999894 L 94.00000000000003 -2.9999999999999 Z M 42.00000000000003 -2.999999999999802 L 42.00000000000003 -2.9999999999997993 L 52.00000000000003 -2.9999999999997993 L 52.00000000000003 -2.999999999999802 L 42.00000000000003 -2.999999999999802 Z M 94.00000000000003 -2.9999999999998477 L 91.00000000000003 -2.9999999999998477 L 91.00000000000003 -2.99999999999984 L 94.00000000000003 -2.99999999999984 L 94.00000000000003 -2.9999999999998477 Z M 91.0 -2.9999999999997993 L 81.00000000000006 -2.9999999999997993 L 81.00000000000006 -2.999999999999802 L 91.0 -2.999999999999802 L 91.0 -2.9999999999997993 Z M 91.0 -2.9999999999997993 L 91.0 -2.999999999999793 L 94.0 -2.999999999999793 L 94.0 -2.9999999999997993 L 91.0 -2.9999999999997993 Z " stroke="#191919" stroke-width="0.35 px" style="stroke-width:0.35;stroke-miterlimit:4;stroke-dasharray:none;fill:#cccccc;fill-opacity:1.0;fill-rule: evenodd"/>
<title>b'Facebinder'</title>
</g>
</svg>