999
FreeCAD v1.0 38641 +468 (Git)
  0
SECTION
  2
HEADER
  9
$ACADVER
  1
AC1014
  9
$ACADMAINTVER
 70
     9
  9
$DWGCODEPAGE
  3
ANSI_1252
  9
$TEXTSTYLE
  7
STANDARD
  9
$DIMSTYLE
  2
STANDARD
  9
$DIMTXSTY
  7
STANDARD
  9
$CMLSTYLE
  2
STANDARD
  9
$LUNITS
 70
2
  9
$INSUNITS
 70
4
  9
$PEXTMAX
 10
50
 20
50
 30
50
  9
$PEXTMIN
 10
0
 20
0
 30
0
  9
$HANDSEED
  5
FFFF
  0
ENDSEC
  0
SECTION
  2
CLASSES
  0
CLASS
  1
ACDBDICTIONARYWDFLT
  2
AcDbDictionaryWithDefault
  3
ObjectDBX Classes
 90
        0
280
     0
281
     0
  0
CLASS
  1
XRECORD
  2
AcDbXrecord
  3
ObjectDBX Classes
 90
        0
280
     0
281
     0
  0
CLASS
  1
LWPOLYLINE
  2
AcDbPolyline
  3
ObjectDBX Classes
 90
        0
280
     0
281
     1
  0
ENDSEC
  0
SECTION
  2
TABLES
  0
TABLE
  2
VPORT
  5
20
330
0
100
AcDbSymbolTable
 70
     1
  0
VPORT
  5
21
330
20
100
AcDbSymbolTableRecord
100
AcDbViewportTableRecord
  2
*ACTIVE
 70
     0
  0
ENDTAB
  0
TABLE
  2
LTYPE
  5
22
330
0
100
AcDbSymbolTable
 70
     1
  0
LTYPE
  5
23
330
21
100
AcDbSymbolTableRecord
100
AcDbLinetypeTableRecord
  2
BYBLOCK
 70
     0
  3

 72
    65
 73
     0
 40
0.0
  0
LTYPE
  5
24
330
21
100
AcDbSymbolTableRecord
100
AcDbLinetypeTableRecord
  2
BYLAYER
 70
     0
  3

 72
    65
 73
     0
 40
0.0
  0
LTYPE
  5
25
330
21
100
AcDbSymbolTableRecord
100
AcDbLinetypeTableRecord
  2
CONTINUOUS
 70
     0
  3
Solid line
 72
    65
 73
     0
 40
0.0
  0
ENDTAB
  0
TABLE
  2
LAYER
  5
B46
330
0
100
AcDbSymbolTable
 70
3
  0
LAYER
  5
B47
330
B46
100
AcDbSymbolTableRecord
100
AcDbLayerTableRecord
  2
0
 70
   0
 62
   7
  6
CONTINUOUS
  0
LAYER
  5
B48
330
B46
100
AcDbSymbolTableRecord
100
AcDbLayerTableRecord
  2
none
 70
    0
 62
    7
  6
CONTINUOUS
  0
LAYER
  5
B49
330
B46
100
AcDbSymbolTableRecord
100
AcDbLayerTableRecord
  2
LinearPattern
 70
    0
 62
    7
  6
CONTINUOUS
  0
ENDTAB
  0
TABLE
  2
STYLE
  5
70
330
0
100
AcDbSymbolTable
 70
     2
  0
STYLE
  5
71
330
70
100
AcDbSymbolTableRecord
100
AcDbTextStyleTableRecord
  2
STANDARD
 70
     0
 40
0.0
 41
1.0
 50
0.0
 71
     0
 42
2.5
  3
arial.ttf
  4

  0
STYLE
  5
72
330
70
100
AcDbSymbolTableRecord
100
AcDbTextStyleTableRecord
  2
ANNOTATIVE
 70
     0
 40
0.0
 41
1.0
 50
0.0
 71
     0
 42
2.5
  3
arial.ttf
  4

  0
ENDTAB
  0
TABLE
  2
VIEW
  5
73
330
0
100
AcDbSymbolTable
 70
     0
  0
ENDTAB
  0
TABLE
  2
UCS
  5
74
330
0
100
AcDbSymbolTable
 70
     0
  0
ENDTAB
  0
TABLE
  2
APPID
  5
75
330
0
100
AcDbSymbolTable
 70
     2
  0
APPID
  5
76
330
75
100
AcDbSymbolTableRecord
100
AcDbRegAppTableRecord
  2
ACAD
 70
     0
  0
APPID
  5
77
330
75
100
AcDbSymbolTableRecord
100
AcDbRegAppTableRecord
  2
ACADANNOTATIVE
 70
     0
  0
ENDTAB
  0
TABLE
  2
DIMSTYLE
  5
78
330
0
100
AcDbSymbolTable
 70
     2
  0
DIMSTYLE
105
79
330
78
100
AcDbSymbolTableRecord
100
AcDbDimStyleTableRecord
  2
STANDARD
 70
     0
  3

  4

  5

  6

  7

 40
0.0
 41
2.5
 42
0.625
 43
3.75
 44
1.25
 45
0.0
 46
0.0
 47
0.0
 48
0.0
140
2.5
141
2.5
142
0.0
143
0.03937007874016
144
1.0
145
0.0
146
1.0
147
0.625
 71
     0
 72
     0
 73
     0
 74
     0
 75
     0
 76
     0
 77
     1
 78
     8
170
     0
171
     3
172
     1
173
     0
174
     0
175
     0
176
     0
177
     0
178
     0
270
     2
271
     2
272
     2
273
     2
274
     3
340
71
275
     0
280
     0
281
     0
282
     0
283
     0
284
     8
285
     0
286
     0
287
     3
288
     0
  0
ENDTAB
  0
TABLE
  2
BLOCK_RECORD
  5
A01
330
0
100
AcDbSymbolTable
  70
5
  0
BLOCK_RECORD
  5
A02
330
A01
100
AcDbSymbolTableRecord
100
AcDbBlockTableRecord
  2
*MODEL_SPACE
  0
BLOCK_RECORD
  5
A03
330
A01
100
AcDbSymbolTableRecord
100
AcDbBlockTableRecord
  2
*PAPER_SPACE
  0
ENDTAB
  0
ENDSEC
  0
SECTION
  2
BLOCKS
  0
BLOCK
  5
A04
330
A02
100
AcDbEntity
  8
0
100
AcDbBlockBegin
  2
*MODEL_SPACE
 70
   0
 10
0
 20
0
 30
0
  3
*MODEL_SPACE
  1
 
  0
ENDBLK
  5
A05
330
A02
100
AcDbEntity
  8
0
100
AcDbBlockEnd
  0
BLOCK
  5
A06
330
A03
100
AcDbEntity
 67
1
  8
0
100
AcDbBlockBegin
  2
*PAPER_SPACE
 70
   0
 10
0
 20
0
 30
0
  3
*PAPER_SPACE
  1
 
  0
ENDBLK
  5
A07
330
A03
100
AcDbEntity
 67
    1
  8
0
100
AcDbBlockEnd
  0
ENDSEC
  0
SECTION
  2
ENTITIES
  0
LINE
  5
A08
330
A02
100
AcDbEntity
  8
LinearPattern
100
AcDbLine
 10
0.000000000
 20
-0.000000000
 30
-17.500000000
 11
3.000000000
 21
-0.000000000
 31
-17.500000000
  0
LINE
  5
A09
330
A02
100
AcDbEntity
  8
LinearPattern
100
AcDbLine
 10
0.000000000
 20
394.000000000
 30
-17.500000000
 11
3.000000000
 21
394.000000000
 31
-17.500000000
  0
LINE
  5
A0A
330
A02
100
AcDbEntity
  8
LinearPattern
100
AcDbLine
 10
0.000000000
 20
-0.000000000
 30
-17.500000000
 11
0.000000000
 21
394.000000000
 31
-17.500000000
  0
LINE
  5
A0B
330
A02
100
AcDbEntity
  8
LinearPattern
100
AcDbLine
 10
3.000000000
 20
-0.000000000
 30
-17.500000000
 11
3.000000000
 21
394.000000000
 31
-17.500000000
  0
LINE
  5
A0C
330
A02
100
AcDbEntity
  8
LinearPattern
100
AcDbLine
 10
0.000000000
 20
-0.000000000
 30
-17.500000000
 11
3.000000000
 21
-0.000000000
 31
-17.500000000
  0
LINE
  5
A0D
330
A02
100
AcDbEntity
  8
LinearPattern
100
AcDbLine
 10
0.000000000
 20
-0.000000000
 30
-10.000000000
 11
3.000000000
 21
-0.000000000
 31
-10.000000000
  0
LINE
  5
A0E
330
A02
100
AcDbEntity
  8
LinearPattern
100
AcDbLine
 10
0.000000000
 20
-0.000000000
 30
-17.500000000
 11
0.000000000
 21
-0.000000000
 31
-10.000000000
  0
LINE
  5
A0F
330
A02
100
AcDbEntity
  8
LinearPattern
100
AcDbLine
 10
3.000000000
 20
-0.000000000
 30
-17.500000000
 11
3.000000000
 21
-0.000000000
 31
-10.000000000
  0
LINE
  5
A10
330
A02
100
AcDbEntity
  8
LinearPattern
100
AcDbLine
 10
0.000000000
 20
394.000000000
 30
-10.000000000
 11
3.000000000
 21
394.000000000
 31
-10.000000000
  0
LINE
  5
A11
330
A02
100
AcDbEntity
  8
LinearPattern
100
AcDbLine
 10
0.000000000
 20
394.000000000
 30
-17.500000000
 11
3.000000000
 21
394.000000000
 31
-17.500000000
  0
LINE
  5
A12
330
A02
100
AcDbEntity
  8
LinearPattern
100
AcDbLine
 10
0.000000000
 20
394.000000000
 30
-10.000000000
 11
0.000000000
 21
394.000000000
 31
-17.500000000
  0
LINE
  5
A13
330
A02
100
AcDbEntity
  8
LinearPattern
100
AcDbLine
 10
3.000000000
 20
394.000000000
 30
-10.000000000
 11
3.000000000
 21
394.000000000
 31
-17.500000000
  0
LINE
  5
A14
330
A02
100
AcDbEntity
  8
LinearPattern
100
AcDbLine
 10
0.000000000
 20
-0.000000000
 30
-17.500000000
 11
0.000000000
 21
-0.000000000
 31
-10.000000000
  0
LINE
  5
A15
330
A02
100
AcDbEntity
  8
LinearPattern
100
AcDbLine
 10
0.000000000
 20
-0.000000000
 30
-10.000000000
 11
0.000000000
 21
-3.000000000
 31
-10.000000000
  0
LINE
  5
A16
330
A02
100
AcDbEntity
  8
LinearPattern
100
AcDbLine
 10
0.000000000
 20
-3.000000000
 30
-10.000000000
 11
-0.000000000
 21
-3.000000000
 31
0.000000000
  0
LINE
  5
A17
330
A02
100
AcDbEntity
  8
LinearPattern
100
AcDbLine
 10
-0.000000000
 20
-3.000000000
 30
0.000000000
 11
0.000000000
 21
0.000000000
 31
0.000000000
  0
LINE
  5
A18
330
A02
100
AcDbEntity
  8
LinearPattern
100
AcDbLine
 10
0.000000000
 20
0.000000000
 30
0.000000000
 11
-0.000000000
 21
0.000000000
 31
7.500000000
  0
LINE
  5
A19
330
A02
100
AcDbEntity
  8
LinearPattern
100
AcDbLine
 10
-0.000000000
 20
0.000000000
 30
7.500000000
 11
-0.000000000
 21
1.000000000
 31
7.500000000
  0
ARC
  5
A1A
330
A02
100
AcDbEntity
  8
LinearPattern
100
AcDbCircle
 10
-0.000000000
 20
1.000000000
 30
4.000001400
 40
3.499998600
100
AcDbArc
 50
90.000000000
 51
150.255108832
  0
ARC
  5
A1B
330
A02
100
AcDbEntity
  8
LinearPattern
100
AcDbCircle
 10
0.000000000
 20
7.999997201
 30
4.000001400
 40
3.499998600
100
AcDbArc
 50
-90.000000000
 51
-66.370630684
  0
LINE
  5
A1C
330
A02
100
AcDbEntity
  8
LinearPattern
100
AcDbLine
 10
0.000000000
 20
42.999997201
 30
0.500002799
 11
0.000000000
 21
7.999997201
 31
0.500002799
  0
ARC
  5
A1D
330
A02
100
AcDbEntity
  8
LinearPattern
100
AcDbCircle
 10
0.000000000
 20
43.000000000
 30
4.000001400
 40
0.000002799
100
AcDbArc
 50
-89.999999976
 51
90.000000000
  0
ARC
  5
A1E
330
A02
100
AcDbEntity
  8
LinearPattern
100
AcDbCircle
 10
0.000000000
 20
49.999997201
 30
4.000001400
 40
0.000000000
100
AcDbArc
 50
180.000000000
 51
-90.000000000
  0
ARC
  5
A1F
330
A02
100
AcDbEntity
  8
LinearPattern
100
AcDbCircle
 10
-0.000000000
 20
50.000000000
 30
4.000001400
 40
3.499998600
100
AcDbArc
 50
90.000000000
 51
180.000000000
  0
ARC
  5
A20
330
A02
100
AcDbEntity
  8
LinearPattern
100
AcDbCircle
 10
0.000000000
 20
56.999997201
 30
4.000001400
 40
3.499998600
100
AcDbArc
 50
-90.000000000
 51
0.000000000
  0
LINE
  5
A21
330
A02
100
AcDbEntity
  8
LinearPattern
100
AcDbLine
 10
0.000000000
 20
91.999997201
 30
0.500002799
 11
0.000000000
 21
56.999997201
 31
0.500002799
  0
ARC
  5
A22
330
A02
100
AcDbEntity
  8
LinearPattern
100
AcDbCircle
 10
0.000000000
 20
92.000000000
 30
4.000001400
 40
0.000002799
100
AcDbArc
 50
-89.999999984
 51
90.000000000
  0
ARC
  5
A23
330
A02
100
AcDbEntity
  8
LinearPattern
100
AcDbCircle
 10
0.000000000
 20
98.999997201
 30
4.000001400
 40
0.000000000
100
AcDbArc
 50
180.000000000
 51
-90.000000000
  0
ARC
  5
A24
330
A02
100
AcDbEntity
  8
LinearPattern
100
AcDbCircle
 10
-0.000000000
 20
99.000000000
 30
4.000001400
 40
3.499998600
100
AcDbArc
 50
90.000000000
 51
180.000000000
  0
ARC
  5
A25
330
A02
100
AcDbEntity
  8
LinearPattern
100
AcDbCircle
 10
0.000000000
 20
105.999997201
 30
4.000001400
 40
3.499998600
100
AcDbArc
 50
-90.000000000
 51
-86.869756387
  0
LINE
  5
A26
330
A02
100
AcDbEntity
  8
LinearPattern
100
AcDbLine
 10
0.000000000
 20
140.999997201
 30
0.500002799
 11
0.000000000
 21
105.999997201
 31
0.500002799
  0
ARC
  5
A27
330
A02
100
AcDbEntity
  8
LinearPattern
100
AcDbCircle
 10
0.000000000
 20
141.000000000
 30
4.000001400
 40
0.000002799
100
AcDbArc
 50
-89.999999984
 51
90.000000000
  0
ARC
  5
A28
330
A02
100
AcDbEntity
  8
LinearPattern
100
AcDbCircle
 10
0.000000000
 20
147.999997201
 30
4.000001400
 40
0.000000000
100
AcDbArc
 50
180.000000000
 51
-90.000000000
  0
ARC
  5
A29
330
A02
100
AcDbEntity
  8
LinearPattern
100
AcDbCircle
 10
-0.000000000
 20
148.000000000
 30
4.000001400
 40
3.499998600
100
AcDbArc
 50
90.000000000
 51
180.000000000
  0
ARC
  5
A2A
330
A02
100
AcDbEntity
  8
LinearPattern
100
AcDbCircle
 10
0.000000000
 20
154.999997201
 30
4.000001400
 40
3.499998600
100
AcDbArc
 50
-90.000000000
 51
0.000000000
  0
LINE
  5
A2B
330
A02
100
AcDbEntity
  8
LinearPattern
100
AcDbLine
 10
0.000000000
 20
189.999997201
 30
0.500002799
 11
0.000000000
 21
154.999997201
 31
0.500002799
  0
ARC
  5
A2C
330
A02
100
AcDbEntity
  8
LinearPattern
100
AcDbCircle
 10
0.000000000
 20
190.000000000
 30
4.000001400
 40
0.000002799
100
AcDbArc
 50
-89.999999984
 51
90.000000000
  0
ARC
  5
A2D
330
A02
100
AcDbEntity
  8
LinearPattern
100
AcDbCircle
 10
0.000000000
 20
196.999997201
 30
4.000001400
 40
0.000000000
100
AcDbArc
 50
180.000000000
 51
-90.000000000
  0
ARC
  5
A2E
330
A02
100
AcDbEntity
  8
LinearPattern
100
AcDbCircle
 10
-0.000000000
 20
197.000000000
 30
4.000001400
 40
3.499998600
100
AcDbArc
 50
90.000000000
 51
180.000000000
  0
ARC
  5
A2F
330
A02
100
AcDbEntity
  8
LinearPattern
100
AcDbCircle
 10
0.000000000
 20
203.999997201
 30
4.000001400
 40
3.499998600
100
AcDbArc
 50
-90.000000000
 51
0.000000000
  0
LINE
  5
A30
330
A02
100
AcDbEntity
  8
LinearPattern
100
AcDbLine
 10
0.000000000
 20
238.999997201
 30
0.500002799
 11
0.000000000
 21
203.999997201
 31
0.500002799
  0
ARC
  5
A31
330
A02
100
AcDbEntity
  8
LinearPattern
100
AcDbCircle
 10
0.000000000
 20
239.000000000
 30
4.000001400
 40
0.000002799
100
AcDbArc
 50
-89.999999984
 51
90.000000000
  0
ARC
  5
A32
330
A02
100
AcDbEntity
  8
LinearPattern
100
AcDbCircle
 10
0.000000000
 20
245.999997201
 30
4.000001400
 40
0.000000000
100
AcDbArc
 50
180.000000000
 51
-90.000000000
  0
ARC
  5
A33
330
A02
100
AcDbEntity
  8
LinearPattern
100
AcDbCircle
 10
-0.000000000
 20
246.000000000
 30
4.000001400
 40
3.499998600
100
AcDbArc
 50
90.000000000
 51
180.000000000
  0
ARC
  5
A34
330
A02
100
AcDbEntity
  8
LinearPattern
100
AcDbCircle
 10
0.000000000
 20
252.999997201
 30
4.000001400
 40
3.499998600
100
AcDbArc
 50
-90.000000000
 51
0.000000000
  0
LINE
  5
A35
330
A02
100
AcDbEntity
  8
LinearPattern
100
AcDbLine
 10
0.000000000
 20
287.999997201
 30
0.500002799
 11
0.000000000
 21
252.999997201
 31
0.500002799
  0
ARC
  5
A36
330
A02
100
AcDbEntity
  8
LinearPattern
100
AcDbCircle
 10
0.000000000
 20
288.000000000
 30
4.000001400
 40
0.000002799
100
AcDbArc
 50
-89.999999984
 51
90.000000000
  0
ARC
  5
A37
330
A02
100
AcDbEntity
  8
LinearPattern
100
AcDbCircle
 10
0.000000000
 20
294.999997201
 30
4.000001400
 40
0.000000000
100
AcDbArc
 50
180.000000000
 51
-90.000000000
  0
ARC
  5
A38
330
A02
100
AcDbEntity
  8
LinearPattern
100
AcDbCircle
 10
-0.000000000
 20
295.000000000
 30
4.000001400
 40
3.499998600
100
AcDbArc
 50
90.000000000
 51
180.000000000
  0
ARC
  5
A39
330
A02
100
AcDbEntity
  8
LinearPattern
100
AcDbCircle
 10
0.000000000
 20
301.999997201
 30
4.000001400
 40
3.499998600
100
AcDbArc
 50
-90.000000000
 51
0.000000000
  0
LINE
  5
A3A
330
A02
100
AcDbEntity
  8
LinearPattern
100
AcDbLine
 10
0.000000000
 20
336.999997201
 30
0.500002799
 11
0.000000000
 21
301.999997201
 31
0.500002799
  0
ARC
  5
A3B
330
A02
100
AcDbEntity
  8
LinearPattern
100
AcDbCircle
 10
0.000000000
 20
337.000000000
 30
4.000001400
 40
0.000002799
100
AcDbArc
 50
-89.999999984
 51
90.000000000
  0
ARC
  5
A3C
330
A02
100
AcDbEntity
  8
LinearPattern
100
AcDbCircle
 10
0.000000000
 20
343.999997201
 30
4.000001400
 40
0.000000000
100
AcDbArc
 50
180.000000000
 51
-90.000000000
  0
ARC
  5
A3D
330
A02
100
AcDbEntity
  8
LinearPattern
100
AcDbCircle
 10
-0.000000000
 20
344.000000000
 30
4.000001400
 40
3.499998600
100
AcDbArc
 50
90.000000000
 51
180.000000000
  0
ARC
  5
A3E
330
A02
100
AcDbEntity
  8
LinearPattern
100
AcDbCircle
 10
0.000000000
 20
350.999997201
 30
4.000001400
 40
3.499998600
100
AcDbArc
 50
-90.000000000
 51
0.000000000
  0
LINE
  5
A3F
330
A02
100
AcDbEntity
  8
LinearPattern
100
AcDbLine
 10
0.000000000
 20
385.999997201
 30
0.500002799
 11
0.000000000
 21
350.999997201
 31
0.500002799
  0
ARC
  5
A40
330
A02
100
AcDbEntity
  8
LinearPattern
100
AcDbCircle
 10
0.000000000
 20
386.000000000
 30
4.000001400
 40
0.000002799
100
AcDbArc
 50
-89.999999984
 51
90.000000000
  0
ARC
  5
A41
330
A02
100
AcDbEntity
  8
LinearPattern
100
AcDbCircle
 10
0.000000000
 20
392.999997201
 30
4.000001400
 40
0.000000000
100
AcDbArc
 50
180.000000000
 51
-90.000000000
  0
LINE
  5
A42
330
A02
100
AcDbEntity
  8
LinearPattern
100
AcDbLine
 10
-0.000000000
 20
392.999997201
 30
7.500000000
 11
-0.000000000
 21
394.000000000
 31
7.500000000
  0
LINE
  5
A43
330
A02
100
AcDbEntity
  8
LinearPattern
100
AcDbLine
 10
-0.000000000
 20
394.000000000
 30
7.500000000
 11
0.000000000
 21
394.000000000
 31
-0.000000000
  0
LINE
  5
A44
330
A02
100
AcDbEntity
  8
LinearPattern
100
AcDbLine
 10
0.000000000
 20
394.000000000
 30
-0.000000000
 11
0.000000000
 21
397.000000000
 31
-0.000000000
  0
LINE
  5
A45
330
A02
100
AcDbEntity
  8
LinearPattern
100
AcDbLine
 10
0.000000000
 20
397.000000000
 30
-0.000000000
 11
0.000000000
 21
397.000000000
 31
-10.000000000
  0
LINE
  5
A46
330
A02
100
AcDbEntity
  8
LinearPattern
100
AcDbLine
 10
0.000000000
 20
397.000000000
 30
-10.000000000
 11
0.000000000
 21
394.000000000
 31
-10.000000000
  0
LINE
  5
A47
330
A02
100
AcDbEntity
  8
LinearPattern
100
AcDbLine
 10
0.000000000
 20
394.000000000
 30
-10.000000000
 11
0.000000000
 21
394.000000000
 31
-17.500000000
  0
LINE
  5
A48
330
A02
100
AcDbEntity
  8
LinearPattern
100
AcDbLine
 10
0.000000000
 20
-0.000000000
 30
-17.500000000
 11
0.000000000
 21
394.000000000
 31
-17.500000000
  0
LINE
  5
A49
330
A02
100
AcDbEntity
  8
LinearPattern
100
AcDbLine
 10
3.000000000
 20
-0.000000000
 30
-17.500000000
 11
3.000000000
 21
-0.000000000
 31
-10.000000000
  0
LINE
  5
A4A
330
A02
100
AcDbEntity
  8
LinearPattern
100
AcDbLine
 10
3.000000000
 20
-0.000000000
 30
-10.000000000
 11
3.000000000
 21
-3.000000000
 31
-10.000000000
  0
LINE
  5
A4B
330
A02
100
AcDbEntity
  8
LinearPattern
100
AcDbLine
 10
3.000000000
 20
-3.000000000
 30
-10.000000000
 11
3.000000000
 21
-3.000000000
 31
0.000000000
  0
LINE
  5
A4C
330
A02
100
AcDbEntity
  8
LinearPattern
100
AcDbLine
 10
3.000000000
 20
-3.000000000
 30
0.000000000
 11
3.000000000
 21
-0.000000000
 31
0.000000000
  0
LINE
  5
A4D
330
A02
100
AcDbEntity
  8
LinearPattern
100
AcDbLine
 10
3.000000000
 20
-0.000000000
 30
0.000000000
 11
3.000000000
 21
0.000000000
 31
7.500000000
  0
LINE
  5
A4E
330
A02
100
AcDbEntity
  8
LinearPattern
100
AcDbLine
 10
3.000000000
 20
0.000000000
 30
7.500000000
 11
3.000000000
 21
1.000000000
 31
7.500000000
  0
ARC
  5
A4F
330
A02
100
AcDbEntity
  8
LinearPattern
100
AcDbCircle
 10
3.000000000
 20
1.000000000
 30
4.000001400
 40
3.499998600
100
AcDbArc
 50
90.000000000
 51
153.434948823
  0
ARC
  5
A50
330
A02
100
AcDbEntity
  8
LinearPattern
100
AcDbCircle
 10
3.000000000
 20
7.999997201
 30
4.000001400
 40
3.499998600
100
AcDbArc
 50
-90.000000000
 51
-53.130102354
  0
LINE
  5
A51
330
A02
100
AcDbEntity
  8
LinearPattern
100
AcDbLine
 10
3.000000000
 20
7.999997201
 30
0.500002799
 11
3.000000000
 21
42.999997201
 31
0.500002799
  0
ARC
  5
A52
330
A02
100
AcDbEntity
  8
LinearPattern
100
AcDbCircle
 10
3.000000000
 20
43.000000000
 30
4.000001400
 40
0.000002799
100
AcDbArc
 50
-89.999999973
 51
90.000000000
  0
ARC
  5
A53
330
A02
100
AcDbEntity
  8
LinearPattern
100
AcDbCircle
 10
3.000000000
 20
49.999997201
 30
4.000001400
 40
0.000000000
100
AcDbArc
 50
180.000000000
 51
-90.000000000
  0
ARC
  5
A54
330
A02
100
AcDbEntity
  8
LinearPattern
100
AcDbCircle
 10
3.000000000
 20
50.000000000
 30
4.000001400
 40
3.499998600
100
AcDbArc
 50
90.000000000
 51
180.000000000
  0
ARC
  5
A55
330
A02
100
AcDbEntity
  8
LinearPattern
100
AcDbCircle
 10
3.000000000
 20
56.999997201
 30
4.000001400
 40
3.499998600
100
AcDbArc
 50
-90.000000000
 51
0.000000000
  0
LINE
  5
A56
330
A02
100
AcDbEntity
  8
LinearPattern
100
AcDbLine
 10
3.000000000
 20
56.999997201
 30
0.500002799
 11
3.000000000
 21
91.999997201
 31
0.500002799
  0
ARC
  5
A57
330
A02
100
AcDbEntity
  8
LinearPattern
100
AcDbCircle
 10
3.000000000
 20
92.000000000
 30
4.000001400
 40
0.000002799
100
AcDbArc
 50
-89.999999982
 51
90.000000000
  0
ARC
  5
A58
330
A02
100
AcDbEntity
  8
LinearPattern
100
AcDbCircle
 10
3.000000000
 20
98.999997201
 30
4.000001400
 40
0.000000000
100
AcDbArc
 50
180.000000000
 51
-90.000000000
  0
ARC
  5
A59
330
A02
100
AcDbEntity
  8
LinearPattern
100
AcDbCircle
 10
3.000000000
 20
99.000000000
 30
4.000001400
 40
3.499998600
100
AcDbArc
 50
90.000000000
 51
180.000000000
  0
ARC
  5
A5A
330
A02
100
AcDbEntity
  8
LinearPattern
100
AcDbCircle
 10
3.000000000
 20
105.999997201
 30
4.000001400
 40
3.499998600
100
AcDbArc
 50
-90.000000000
 51
0.000000000
  0
LINE
  5
A5B
330
A02
100
AcDbEntity
  8
LinearPattern
100
AcDbLine
 10
3.000000000
 20
105.999997201
 30
0.500002799
 11
3.000000000
 21
140.999997201
 31
0.500002799
  0
ARC
  5
A5C
330
A02
100
AcDbEntity
  8
LinearPattern
100
AcDbCircle
 10
3.000000000
 20
141.000000000
 30
4.000001400
 40
0.000002799
100
AcDbArc
 50
-89.999999982
 51
90.000000000
  0
ARC
  5
A5D
330
A02
100
AcDbEntity
  8
LinearPattern
100
AcDbCircle
 10
3.000000000
 20
147.999997201
 30
4.000001400
 40
0.000000000
100
AcDbArc
 50
180.000000000
 51
-90.000000000
  0
ARC
  5
A5E
330
A02
100
AcDbEntity
  8
LinearPattern
100
AcDbCircle
 10
3.000000000
 20
148.000000000
 30
4.000001400
 40
3.499998600
100
AcDbArc
 50
90.000000000
 51
180.000000000
  0
ARC
  5
A5F
330
A02
100
AcDbEntity
  8
LinearPattern
100
AcDbCircle
 10
3.000000000
 20
154.999997201
 30
4.000001400
 40
3.499998600
100
AcDbArc
 50
-90.000000000
 51
0.000000000
  0
LINE
  5
A60
330
A02
100
AcDbEntity
  8
LinearPattern
100
AcDbLine
 10
3.000000000
 20
154.999997201
 30
0.500002799
 11
3.000000000
 21
189.999997201
 31
0.500002799
  0
ARC
  5
A61
330
A02
100
AcDbEntity
  8
LinearPattern
100
AcDbCircle
 10
3.000000000
 20
190.000000000
 30
4.000001400
 40
0.000002799
100
AcDbArc
 50
-89.999999982
 51
90.000000000
  0
ARC
  5
A62
330
A02
100
AcDbEntity
  8
LinearPattern
100
AcDbCircle
 10
3.000000000
 20
196.999997201
 30
4.000001400
 40
0.000000000
100
AcDbArc
 50
180.000000000
 51
-90.000000000
  0
ARC
  5
A63
330
A02
100
AcDbEntity
  8
LinearPattern
100
AcDbCircle
 10
3.000000000
 20
197.000000000
 30
4.000001400
 40
3.499998600
100
AcDbArc
 50
90.000000000
 51
180.000000000
  0
ARC
  5
A64
330
A02
100
AcDbEntity
  8
LinearPattern
100
AcDbCircle
 10
3.000000000
 20
203.999997201
 30
4.000001400
 40
3.499998600
100
AcDbArc
 50
-90.000000000
 51
0.000000000
  0
LINE
  5
A65
330
A02
100
AcDbEntity
  8
LinearPattern
100
AcDbLine
 10
3.000000000
 20
203.999997201
 30
0.500002799
 11
3.000000000
 21
238.999997201
 31
0.500002799
  0
ARC
  5
A66
330
A02
100
AcDbEntity
  8
LinearPattern
100
AcDbCircle
 10
3.000000000
 20
239.000000000
 30
4.000001400
 40
0.000002799
100
AcDbArc
 50
-89.999999982
 51
90.000000000
  0
ARC
  5
A67
330
A02
100
AcDbEntity
  8
LinearPattern
100
AcDbCircle
 10
3.000000000
 20
245.999997201
 30
4.000001400
 40
0.000000000
100
AcDbArc
 50
180.000000000
 51
-90.000000000
  0
ARC
  5
A68
330
A02
100
AcDbEntity
  8
LinearPattern
100
AcDbCircle
 10
3.000000000
 20
246.000000000
 30
4.000001400
 40
3.499998600
100
AcDbArc
 50
90.000000000
 51
180.000000000
  0
ARC
  5
A69
330
A02
100
AcDbEntity
  8
LinearPattern
100
AcDbCircle
 10
3.000000000
 20
252.999997201
 30
4.000001400
 40
3.499998600
100
AcDbArc
 50
-90.000000000
 51
0.000000000
  0
LINE
  5
A6A
330
A02
100
AcDbEntity
  8
LinearPattern
100
AcDbLine
 10
3.000000000
 20
252.999997201
 30
0.500002799
 11
3.000000000
 21
287.999997201
 31
0.500002799
  0
ARC
  5
A6B
330
A02
100
AcDbEntity
  8
LinearPattern
100
AcDbCircle
 10
3.000000000
 20
288.000000000
 30
4.000001400
 40
0.000002799
100
AcDbArc
 50
-89.999999982
 51
90.000000000
  0
ARC
  5
A6C
330
A02
100
AcDbEntity
  8
LinearPattern
100
AcDbCircle
 10
3.000000000
 20
294.999997201
 30
4.000001400
 40
0.000000000
100
AcDbArc
 50
180.000000000
 51
-90.000000000
  0
ARC
  5
A6D
330
A02
100
AcDbEntity
  8
LinearPattern
100
AcDbCircle
 10
3.000000000
 20
295.000000000
 30
4.000001400
 40
3.499998600
100
AcDbArc
 50
90.000000000
 51
180.000000000
  0
ARC
  5
A6E
330
A02
100
AcDbEntity
  8
LinearPattern
100
AcDbCircle
 10
3.000000000
 20
301.999997201
 30
4.000001400
 40
3.499998600
100
AcDbArc
 50
-90.000000000
 51
0.000000000
  0
LINE
  5
A6F
330
A02
100
AcDbEntity
  8
LinearPattern
100
AcDbLine
 10
3.000000000
 20
301.999997201
 30
0.500002799
 11
3.000000000
 21
336.999997201
 31
0.500002799
  0
ARC
  5
A70
330
A02
100
AcDbEntity
  8
LinearPattern
100
AcDbCircle
 10
3.000000000
 20
337.000000000
 30
4.000001400
 40
0.000002799
100
AcDbArc
 50
-89.999999982
 51
90.000000000
  0
ARC
  5
A71
330
A02
100
AcDbEntity
  8
LinearPattern
100
AcDbCircle
 10
3.000000000
 20
343.999997201
 30
4.000001400
 40
0.000000000
100
AcDbArc
 50
180.000000000
 51
-90.000000000
  0
ARC
  5
A72
330
A02
100
AcDbEntity
  8
LinearPattern
100
AcDbCircle
 10
3.000000000
 20
344.000000000
 30
4.000001400
 40
3.499998600
100
AcDbArc
 50
90.000000000
 51
180.000000000
  0
ARC
  5
A73
330
A02
100
AcDbEntity
  8
LinearPattern
100
AcDbCircle
 10
3.000000000
 20
350.999997201
 30
4.000001400
 40
3.499998600
100
AcDbArc
 50
-90.000000000
 51
0.000000000
  0
LINE
  5
A74
330
A02
100
AcDbEntity
  8
LinearPattern
100
AcDbLine
 10
3.000000000
 20
350.999997201
 30
0.500002799
 11
3.000000000
 21
385.999997201
 31
0.500002799
  0
ARC
  5
A75
330
A02
100
AcDbEntity
  8
LinearPattern
100
AcDbCircle
 10
3.000000000
 20
386.000000000
 30
4.000001400
 40
0.000002799
100
AcDbArc
 50
-89.999999982
 51
90.000000000
  0
ARC
  5
A76
330
A02
100
AcDbEntity
  8
LinearPattern
100
AcDbCircle
 10
3.000000000
 20
392.999997201
 30
4.000001400
 40
0.000000000
100
AcDbArc
 50
180.000000000
 51
-90.000000000
  0
LINE
  5
A77
330
A02
100
AcDbEntity
  8
LinearPattern
100
AcDbLine
 10
3.000000000
 20
392.999997201
 30
7.500000000
 11
3.000000000
 21
394.000000000
 31
7.500000000
  0
LINE
  5
A78
330
A02
100
AcDbEntity
  8
LinearPattern
100
AcDbLine
 10
3.000000000
 20
394.000000000
 30
7.500000000
 11
3.000000000
 21
394.000000000
 31
-0.000000000
  0
LINE
  5
A79
330
A02
100
AcDbEntity
  8
LinearPattern
100
AcDbLine
 10
3.000000000
 20
394.000000000
 30
-0.000000000
 11
3.000000000
 21
397.000000000
 31
-0.000000000
  0
LINE
  5
A7A
330
A02
100
AcDbEntity
  8
LinearPattern
100
AcDbLine
 10
3.000000000
 20
397.000000000
 30
-0.000000000
 11
3.000000000
 21
397.000000000
 31
-10.000000000
  0
LINE
  5
A7B
330
A02
100
AcDbEntity
  8
LinearPattern
100
AcDbLine
 10
3.000000000
 20
397.000000000
 30
-10.000000000
 11
3.000000000
 21
394.000000000
 31
-10.000000000
  0
LINE
  5
A7C
330
A02
100
AcDbEntity
  8
LinearPattern
100
AcDbLine
 10
3.000000000
 20
394.000000000
 30
-10.000000000
 11
3.000000000
 21
394.000000000
 31
-17.500000000
  0
LINE
  5
A7D
330
A02
100
AcDbEntity
  8
LinearPattern
100
AcDbLine
 10
3.000000000
 20
-0.000000000
 30
-17.500000000
 11
3.000000000
 21
394.000000000
 31
-17.500000000
  0
LINE
  5
A7E
330
A02
100
AcDbEntity
  8
LinearPattern
100
AcDbLine
 10
0.000000000
 20
-0.000000000
 30
-10.000000000
 11
3.000000000
 21
-0.000000000
 31
-10.000000000
  0
LINE
  5
A7F
330
A02
100
AcDbEntity
  8
LinearPattern
100
AcDbLine
 10
0.000000000
 20
-3.000000000
 30
-10.000000000
 11
3.000000000
 21
-3.000000000
 31
-10.000000000
  0
LINE
  5
A80
330
A02
100
AcDbEntity
  8
LinearPattern
100
AcDbLine
 10
0.000000000
 20
-0.000000000
 30
-10.000000000
 11
0.000000000
 21
-3.000000000
 31
-10.000000000
  0
LINE
  5
A81
330
A02
100
AcDbEntity
  8
LinearPattern
100
AcDbLine
 10
3.000000000
 20
-0.000000000
 30
-10.000000000
 11
3.000000000
 21
-3.000000000
 31
-10.000000000
  0
LINE
  5
A82
330
A02
100
AcDbEntity
  8
LinearPattern
100
AcDbLine
 10
0.000000000
 20
397.000000000
 30
-10.000000000
 11
3.000000000
 21
397.000000000
 31
-10.000000000
  0
LINE
  5
A83
330
A02
100
AcDbEntity
  8
LinearPattern
100
AcDbLine
 10
0.000000000
 20
394.000000000
 30
-10.000000000
 11
3.000000000
 21
394.000000000
 31
-10.000000000
  0
LINE
  5
A84
330
A02
100
AcDbEntity
  8
LinearPattern
100
AcDbLine
 10
0.000000000
 20
397.000000000
 30
-10.000000000
 11
0.000000000
 21
394.000000000
 31
-10.000000000
  0
LINE
  5
A85
330
A02
100
AcDbEntity
  8
LinearPattern
100
AcDbLine
 10
3.000000000
 20
397.000000000
 30
-10.000000000
 11
3.000000000
 21
394.000000000
 31
-10.000000000
  0
LINE
  5
A86
330
A02
100
AcDbEntity
  8
LinearPattern
100
AcDbLine
 10
0.000000000
 20
-3.000000000
 30
-10.000000000
 11
3.000000000
 21
-3.000000000
 31
-10.000000000
  0
LINE
  5
A87
330
A02
100
AcDbEntity
  8
LinearPattern
100
AcDbLine
 10
-0.000000000
 20
-3.000000000
 30
0.000000000
 11
3.000000000
 21
-3.000000000
 31
0.000000000
  0
LINE
  5
A88
330
A02
100
AcDbEntity
  8
LinearPattern
100
AcDbLine
 10
0.000000000
 20
-3.000000000
 30
-10.000000000
 11
-0.000000000
 21
-3.000000000
 31
0.000000000
  0
LINE
  5
A89
330
A02
100
AcDbEntity
  8
LinearPattern
100
AcDbLine
 10
3.000000000
 20
-3.000000000
 30
-10.000000000
 11
3.000000000
 21
-3.000000000
 31
0.000000000
  0
LINE
  5
A8A
330
A02
100
AcDbEntity
  8
LinearPattern
100
AcDbLine
 10
-0.000000000
 20
-3.000000000
 30
0.000000000
 11
3.000000000
 21
-3.000000000
 31
0.000000000
  0
LINE
  5
A8B
330
A02
100
AcDbEntity
  8
LinearPattern
100
AcDbLine
 10
0.000000000
 20
0.000000000
 30
0.000000000
 11
3.000000000
 21
-0.000000000
 31
0.000000000
  0
LINE
  5
A8C
330
A02
100
AcDbEntity
  8
LinearPattern
100
AcDbLine
 10
-0.000000000
 20
-3.000000000
 30
0.000000000
 11
0.000000000
 21
0.000000000
 31
0.000000000
  0
LINE
  5
A8D
330
A02
100
AcDbEntity
  8
LinearPattern
100
AcDbLine
 10
3.000000000
 20
-3.000000000
 30
0.000000000
 11
3.000000000
 21
-0.000000000
 31
0.000000000
  0
LINE
  5
A8E
330
A02
100
AcDbEntity
  8
LinearPattern
100
AcDbLine
 10
0.000000000
 20
0.000000000
 30
0.000000000
 11
3.000000000
 21
-0.000000000
 31
0.000000000
  0
LINE
  5
A8F
330
A02
100
AcDbEntity
  8
LinearPattern
100
AcDbLine
 10
-0.000000000
 20
0.000000000
 30
7.500000000
 11
3.000000000
 21
0.000000000
 31
7.500000000
  0
LINE
  5
A90
330
A02
100
AcDbEntity
  8
LinearPattern
100
AcDbLine
 10
0.000000000
 20
0.000000000
 30
0.000000000
 11
-0.000000000
 21
0.000000000
 31
7.500000000
  0
LINE
  5
A91
330
A02
100
AcDbEntity
  8
LinearPattern
100
AcDbLine
 10
3.000000000
 20
-0.000000000
 30
0.000000000
 11
3.000000000
 21
0.000000000
 31
7.500000000
  0
LINE
  5
A92
330
A02
100
AcDbEntity
  8
LinearPattern
100
AcDbLine
 10
-0.000000000
 20
0.000000000
 30
7.500000000
 11
-0.000000000
 21
1.000000000
 31
7.500000000
  0
LINE
  5
A93
330
A02
100
AcDbEntity
  8
LinearPattern
100
AcDbLine
 10
3.000000000
 20
1.000000000
 30
7.500000000
 11
-0.000000000
 21
1.000000000
 31
7.500000000
  0
LINE
  5
A94
330
A02
100
AcDbEntity
  8
LinearPattern
100
AcDbLine
 10
3.000000000
 20
0.000000000
 30
7.500000000
 11
3.000000000
 21
1.000000000
 31
7.500000000
  0
LINE
  5
A95
330
A02
100
AcDbEntity
  8
LinearPattern
100
AcDbLine
 10
-0.000000000
 20
0.000000000
 30
7.500000000
 11
3.000000000
 21
0.000000000
 31
7.500000000
  0
ARC
  5
A96
330
A02
100
AcDbEntity
  8
LinearPattern
100
AcDbCircle
 10
3.000000000
 20
1.000000000
 30
4.000001400
 40
3.499998600
100
AcDbArc
 50
90.000000000
 51
153.434948823
  0
LINE
  5
A97
330
A02
100
AcDbEntity
  8
LinearPattern
100
AcDbLine
 10
3.000000000
 20
1.000000000
 30
7.500000000
 11
-0.000000000
 21
1.000000000
 31
7.500000000
  0
ARC
  5
A98
330
A02
100
AcDbEntity
  8
LinearPattern
100
AcDbCircle
 10
-0.000000000
 20
1.000000000
 30
4.000001400
 40
3.499998600
100
AcDbArc
 50
90.000000000
 51
150.255108832
  0
LINE
  5
A99
330
A02
100
AcDbEntity
  8
LinearPattern
100
AcDbLine
 10
3.000000000
 20
4.499998600
 30
4.000001400
 11
0.000000000
 21
4.499998600
 31
4.000001400
  0
ARC
  5
A9A
330
A02
100
AcDbEntity
  8
LinearPattern
100
AcDbCircle
 10
3.000000000
 20
7.999997201
 30
4.000001400
 40
3.499998600
100
AcDbArc
 50
-90.000000000
 51
-53.130102354
  0
LINE
  5
A9B
330
A02
100
AcDbEntity
  8
LinearPattern
100
AcDbLine
 10
3.000000000
 20
7.999997201
 30
0.500002799
 11
0.000000000
 21
7.999997201
 31
0.500002799
  0
ARC
  5
A9C
330
A02
100
AcDbEntity
  8
LinearPattern
100
AcDbCircle
 10
0.000000000
 20
7.999997201
 30
4.000001400
 40
3.499998600
100
AcDbArc
 50
-90.000000000
 51
-66.370630684
  0
LINE
  5
A9D
330
A02
100
AcDbEntity
  8
LinearPattern
100
AcDbLine
 10
3.000000000
 20
4.499998600
 30
4.000001400
 11
0.000000000
 21
4.499998600
 31
4.000001400
  0
LINE
  5
A9E
330
A02
100
AcDbEntity
  8
LinearPattern
100
AcDbLine
 10
3.000000000
 20
7.999997201
 30
0.500002799
 11
3.000000000
 21
42.999997201
 31
0.500002799
  0
LINE
  5
A9F
330
A02
100
AcDbEntity
  8
LinearPattern
100
AcDbLine
 10
3.000000000
 20
42.999997201
 30
0.500002799
 11
0.000000000
 21
42.999997201
 31
0.500002799
  0
LINE
  5
AA0
330
A02
100
AcDbEntity
  8
LinearPattern
100
AcDbLine
 10
0.000000000
 20
42.999997201
 30
0.500002799
 11
0.000000000
 21
7.999997201
 31
0.500002799
  0
LINE
  5
AA1
330
A02
100
AcDbEntity
  8
LinearPattern
100
AcDbLine
 10
3.000000000
 20
7.999997201
 30
0.500002799
 11
0.000000000
 21
7.999997201
 31
0.500002799
  0
ARC
  5
AA2
330
A02
100
AcDbEntity
  8
LinearPattern
100
AcDbCircle
 10
3.000000000
 20
43.000000000
 30
4.000001400
 40
0.000002799
100
AcDbArc
 50
-89.999999973
 51
90.000000000
  0
LINE
  5
AA3
330
A02
100
AcDbEntity
  8
LinearPattern
100
AcDbLine
 10
3.000000000
 20
46.499998600
 30
4.000001400
 11
0.000000000
 21
46.499998600
 31
4.000001400
  0
ARC
  5
AA4
330
A02
100
AcDbEntity
  8
LinearPattern
100
AcDbCircle
 10
0.000000000
 20
43.000000000
 30
4.000001400
 40
0.000002799
100
AcDbArc
 50
-89.999999976
 51
90.000000000
  0
LINE
  5
AA5
330
A02
100
AcDbEntity
  8
LinearPattern
100
AcDbLine
 10
3.000000000
 20
42.999997201
 30
0.500002799
 11
0.000000000
 21
42.999997201
 31
0.500002799
  0
ARC
  5
AA6
330
A02
100
AcDbEntity
  8
LinearPattern
100
AcDbCircle
 10
3.000000000
 20
49.999997201
 30
4.000001400
 40
0.000000000
100
AcDbArc
 50
180.000000000
 51
-90.000000000
  0
LINE
  5
AA7
330
A02
100
AcDbEntity
  8
LinearPattern
100
AcDbLine
 10
3.000000000
 20
46.499998600
 30
4.000001400
 11
0.000000000
 21
46.499998600
 31
4.000001400
  0
ARC
  5
AA8
330
A02
100
AcDbEntity
  8
LinearPattern
100
AcDbCircle
 10
0.000000000
 20
49.999997201
 30
4.000001400
 40
0.000000000
100
AcDbArc
 50
180.000000000
 51
-90.000000000
  0
LINE
  5
AA9
330
A02
100
AcDbEntity
  8
LinearPattern
100
AcDbLine
 10
3.000000000
 20
49.999997201
 30
7.500000000
 11
0.000000000
 21
49.999997201
 31
7.500000000
  0
ARC
  5
AAA
330
A02
100
AcDbEntity
  8
LinearPattern
100
AcDbCircle
 10
3.000000000
 20
50.000000000
 30
4.000001400
 40
3.499998600
100
AcDbArc
 50
90.000000000
 51
180.000000000
  0
LINE
  5
AAB
330
A02
100
AcDbEntity
  8
LinearPattern
100
AcDbLine
 10
3.000000000
 20
49.999997201
 30
7.500000000
 11
0.000000000
 21
49.999997201
 31
7.500000000
  0
ARC
  5
AAC
330
A02
100
AcDbEntity
  8
LinearPattern
100
AcDbCircle
 10
-0.000000000
 20
50.000000000
 30
4.000001400
 40
3.499998600
100
AcDbArc
 50
90.000000000
 51
180.000000000
  0
LINE
  5
AAD
330
A02
100
AcDbEntity
  8
LinearPattern
100
AcDbLine
 10
3.000000000
 20
53.499998600
 30
4.000001400
 11
-0.000000000
 21
53.499998600
 31
4.000001400
  0
ARC
  5
AAE
330
A02
100
AcDbEntity
  8
LinearPattern
100
AcDbCircle
 10
3.000000000
 20
56.999997201
 30
4.000001400
 40
3.499998600
100
AcDbArc
 50
-90.000000000
 51
0.000000000
  0
LINE
  5
AAF
330
A02
100
AcDbEntity
  8
LinearPattern
100
AcDbLine
 10
3.000000000
 20
56.999997201
 30
0.500002799
 11
0.000000000
 21
56.999997201
 31
0.500002799
  0
ARC
  5
AB0
330
A02
100
AcDbEntity
  8
LinearPattern
100
AcDbCircle
 10
0.000000000
 20
56.999997201
 30
4.000001400
 40
3.499998600
100
AcDbArc
 50
-90.000000000
 51
0.000000000
  0
LINE
  5
AB1
330
A02
100
AcDbEntity
  8
LinearPattern
100
AcDbLine
 10
3.000000000
 20
53.499998600
 30
4.000001400
 11
-0.000000000
 21
53.499998600
 31
4.000001400
  0
LINE
  5
AB2
330
A02
100
AcDbEntity
  8
LinearPattern
100
AcDbLine
 10
3.000000000
 20
56.999997201
 30
0.500002799
 11
3.000000000
 21
91.999997201
 31
0.500002799
  0
LINE
  5
AB3
330
A02
100
AcDbEntity
  8
LinearPattern
100
AcDbLine
 10
3.000000000
 20
91.999997201
 30
0.500002799
 11
0.000000000
 21
91.999997201
 31
0.500002799
  0
LINE
  5
AB4
330
A02
100
AcDbEntity
  8
LinearPattern
100
AcDbLine
 10
0.000000000
 20
91.999997201
 30
0.500002799
 11
0.000000000
 21
56.999997201
 31
0.500002799
  0
LINE
  5
AB5
330
A02
100
AcDbEntity
  8
LinearPattern
100
AcDbLine
 10
3.000000000
 20
56.999997201
 30
0.500002799
 11
0.000000000
 21
56.999997201
 31
0.500002799
  0
ARC
  5
AB6
330
A02
100
AcDbEntity
  8
LinearPattern
100
AcDbCircle
 10
3.000000000
 20
92.000000000
 30
4.000001400
 40
0.000002799
100
AcDbArc
 50
-89.999999982
 51
90.000000000
  0
LINE
  5
AB7
330
A02
100
AcDbEntity
  8
LinearPattern
100
AcDbLine
 10
3.000000000
 20
95.499998600
 30
4.000001400
 11
0.000000000
 21
95.499998600
 31
4.000001400
  0
ARC
  5
AB8
330
A02
100
AcDbEntity
  8
LinearPattern
100
AcDbCircle
 10
0.000000000
 20
92.000000000
 30
4.000001400
 40
0.000002799
100
AcDbArc
 50
-89.999999984
 51
90.000000000
  0
LINE
  5
AB9
330
A02
100
AcDbEntity
  8
LinearPattern
100
AcDbLine
 10
3.000000000
 20
91.999997201
 30
0.500002799
 11
0.000000000
 21
91.999997201
 31
0.500002799
  0
ARC
  5
ABA
330
A02
100
AcDbEntity
  8
LinearPattern
100
AcDbCircle
 10
3.000000000
 20
98.999997201
 30
4.000001400
 40
0.000000000
100
AcDbArc
 50
180.000000000
 51
-90.000000000
  0
LINE
  5
ABB
330
A02
100
AcDbEntity
  8
LinearPattern
100
AcDbLine
 10
3.000000000
 20
95.499998600
 30
4.000001400
 11
0.000000000
 21
95.499998600
 31
4.000001400
  0
ARC
  5
ABC
330
A02
100
AcDbEntity
  8
LinearPattern
100
AcDbCircle
 10
0.000000000
 20
98.999997201
 30
4.000001400
 40
0.000000000
100
AcDbArc
 50
180.000000000
 51
-90.000000000
  0
LINE
  5
ABD
330
A02
100
AcDbEntity
  8
LinearPattern
100
AcDbLine
 10
3.000000000
 20
98.999997201
 30
7.500000000
 11
0.000000000
 21
98.999997201
 31
7.500000000
  0
ARC
  5
ABE
330
A02
100
AcDbEntity
  8
LinearPattern
100
AcDbCircle
 10
3.000000000
 20
99.000000000
 30
4.000001400
 40
3.499998600
100
AcDbArc
 50
90.000000000
 51
180.000000000
  0
LINE
  5
ABF
330
A02
100
AcDbEntity
  8
LinearPattern
100
AcDbLine
 10
3.000000000
 20
98.999997201
 30
7.500000000
 11
0.000000000
 21
98.999997201
 31
7.500000000
  0
ARC
  5
AC0
330
A02
100
AcDbEntity
  8
LinearPattern
100
AcDbCircle
 10
-0.000000000
 20
99.000000000
 30
4.000001400
 40
3.499998600
100
AcDbArc
 50
90.000000000
 51
180.000000000
  0
LINE
  5
AC1
330
A02
100
AcDbEntity
  8
LinearPattern
100
AcDbLine
 10
3.000000000
 20
102.499998600
 30
4.000001400
 11
-0.000000000
 21
102.499998600
 31
4.000001400
  0
ARC
  5
AC2
330
A02
100
AcDbEntity
  8
LinearPattern
100
AcDbCircle
 10
3.000000000
 20
105.999997201
 30
4.000001400
 40
3.499998600
100
AcDbArc
 50
-90.000000000
 51
0.000000000
  0
LINE
  5
AC3
330
A02
100
AcDbEntity
  8
LinearPattern
100
AcDbLine
 10
3.000000000
 20
105.999997201
 30
0.500002799
 11
0.000000000
 21
105.999997201
 31
0.500002799
  0
ARC
  5
AC4
330
A02
100
AcDbEntity
  8
LinearPattern
100
AcDbCircle
 10
0.000000000
 20
105.999997201
 30
4.000001400
 40
3.499998600
100
AcDbArc
 50
-90.000000000
 51
-86.869756387
  0
LINE
  5
AC5
330
A02
100
AcDbEntity
  8
LinearPattern
100
AcDbLine
 10
3.000000000
 20
102.499998600
 30
4.000001400
 11
-0.000000000
 21
102.499998600
 31
4.000001400
  0
LINE
  5
AC6
330
A02
100
AcDbEntity
  8
LinearPattern
100
AcDbLine
 10
3.000000000
 20
105.999997201
 30
0.500002799
 11
3.000000000
 21
140.999997201
 31
0.500002799
  0
LINE
  5
AC7
330
A02
100
AcDbEntity
  8
LinearPattern
100
AcDbLine
 10
3.000000000
 20
140.999997201
 30
0.500002799
 11
0.000000000
 21
140.999997201
 31
0.500002799
  0
LINE
  5
AC8
330
A02
100
AcDbEntity
  8
LinearPattern
100
AcDbLine
 10
0.000000000
 20
140.999997201
 30
0.500002799
 11
0.000000000
 21
105.999997201
 31
0.500002799
  0
LINE
  5
AC9
330
A02
100
AcDbEntity
  8
LinearPattern
100
AcDbLine
 10
3.000000000
 20
105.999997201
 30
0.500002799
 11
0.000000000
 21
105.999997201
 31
0.500002799
  0
ARC
  5
ACA
330
A02
100
AcDbEntity
  8
LinearPattern
100
AcDbCircle
 10
3.000000000
 20
141.000000000
 30
4.000001400
 40
0.000002799
100
AcDbArc
 50
-89.999999982
 51
90.000000000
  0
LINE
  5
ACB
330
A02
100
AcDbEntity
  8
LinearPattern
100
AcDbLine
 10
3.000000000
 20
144.499998600
 30
4.000001400
 11
0.000000000
 21
144.499998600
 31
4.000001400
  0
ARC
  5
ACC
330
A02
100
AcDbEntity
  8
LinearPattern
100
AcDbCircle
 10
0.000000000
 20
141.000000000
 30
4.000001400
 40
0.000002799
100
AcDbArc
 50
-89.999999984
 51
90.000000000
  0
LINE
  5
ACD
330
A02
100
AcDbEntity
  8
LinearPattern
100
AcDbLine
 10
3.000000000
 20
140.999997201
 30
0.500002799
 11
0.000000000
 21
140.999997201
 31
0.500002799
  0
ARC
  5
ACE
330
A02
100
AcDbEntity
  8
LinearPattern
100
AcDbCircle
 10
3.000000000
 20
147.999997201
 30
4.000001400
 40
0.000000000
100
AcDbArc
 50
180.000000000
 51
-90.000000000
  0
LINE
  5
ACF
330
A02
100
AcDbEntity
  8
LinearPattern
100
AcDbLine
 10
3.000000000
 20
144.499998600
 30
4.000001400
 11
0.000000000
 21
144.499998600
 31
4.000001400
  0
ARC
  5
AD0
330
A02
100
AcDbEntity
  8
LinearPattern
100
AcDbCircle
 10
0.000000000
 20
147.999997201
 30
4.000001400
 40
0.000000000
100
AcDbArc
 50
180.000000000
 51
-90.000000000
  0
LINE
  5
AD1
330
A02
100
AcDbEntity
  8
LinearPattern
100
AcDbLine
 10
3.000000000
 20
147.999997201
 30
7.500000000
 11
0.000000000
 21
147.999997201
 31
7.500000000
  0
ARC
  5
AD2
330
A02
100
AcDbEntity
  8
LinearPattern
100
AcDbCircle
 10
3.000000000
 20
148.000000000
 30
4.000001400
 40
3.499998600
100
AcDbArc
 50
90.000000000
 51
180.000000000
  0
LINE
  5
AD3
330
A02
100
AcDbEntity
  8
LinearPattern
100
AcDbLine
 10
3.000000000
 20
147.999997201
 30
7.500000000
 11
0.000000000
 21
147.999997201
 31
7.500000000
  0
ARC
  5
AD4
330
A02
100
AcDbEntity
  8
LinearPattern
100
AcDbCircle
 10
-0.000000000
 20
148.000000000
 30
4.000001400
 40
3.499998600
100
AcDbArc
 50
90.000000000
 51
180.000000000
  0
LINE
  5
AD5
330
A02
100
AcDbEntity
  8
LinearPattern
100
AcDbLine
 10
3.000000000
 20
151.499998600
 30
4.000001400
 11
-0.000000000
 21
151.499998600
 31
4.000001400
  0
ARC
  5
AD6
330
A02
100
AcDbEntity
  8
LinearPattern
100
AcDbCircle
 10
3.000000000
 20
154.999997201
 30
4.000001400
 40
3.499998600
100
AcDbArc
 50
-90.000000000
 51
0.000000000
  0
LINE
  5
AD7
330
A02
100
AcDbEntity
  8
LinearPattern
100
AcDbLine
 10
3.000000000
 20
154.999997201
 30
0.500002799
 11
0.000000000
 21
154.999997201
 31
0.500002799
  0
ARC
  5
AD8
330
A02
100
AcDbEntity
  8
LinearPattern
100
AcDbCircle
 10
0.000000000
 20
154.999997201
 30
4.000001400
 40
3.499998600
100
AcDbArc
 50
-90.000000000
 51
0.000000000
  0
LINE
  5
AD9
330
A02
100
AcDbEntity
  8
LinearPattern
100
AcDbLine
 10
3.000000000
 20
151.499998600
 30
4.000001400
 11
-0.000000000
 21
151.499998600
 31
4.000001400
  0
LINE
  5
ADA
330
A02
100
AcDbEntity
  8
LinearPattern
100
AcDbLine
 10
3.000000000
 20
154.999997201
 30
0.500002799
 11
3.000000000
 21
189.999997201
 31
0.500002799
  0
LINE
  5
ADB
330
A02
100
AcDbEntity
  8
LinearPattern
100
AcDbLine
 10
3.000000000
 20
189.999997201
 30
0.500002799
 11
0.000000000
 21
189.999997201
 31
0.500002799
  0
LINE
  5
ADC
330
A02
100
AcDbEntity
  8
LinearPattern
100
AcDbLine
 10
0.000000000
 20
189.999997201
 30
0.500002799
 11
0.000000000
 21
154.999997201
 31
0.500002799
  0
LINE
  5
ADD
330
A02
100
AcDbEntity
  8
LinearPattern
100
AcDbLine
 10
3.000000000
 20
154.999997201
 30
0.500002799
 11
0.000000000
 21
154.999997201
 31
0.500002799
  0
ARC
  5
ADE
330
A02
100
AcDbEntity
  8
LinearPattern
100
AcDbCircle
 10
3.000000000
 20
190.000000000
 30
4.000001400
 40
0.000002799
100
AcDbArc
 50
-89.999999982
 51
90.000000000
  0
LINE
  5
ADF
330
A02
100
AcDbEntity
  8
LinearPattern
100
AcDbLine
 10
3.000000000
 20
193.499998600
 30
4.000001400
 11
0.000000000
 21
193.499998600
 31
4.000001400
  0
ARC
  5
AE0
330
A02
100
AcDbEntity
  8
LinearPattern
100
AcDbCircle
 10
0.000000000
 20
190.000000000
 30
4.000001400
 40
0.000002799
100
AcDbArc
 50
-89.999999984
 51
90.000000000
  0
LINE
  5
AE1
330
A02
100
AcDbEntity
  8
LinearPattern
100
AcDbLine
 10
3.000000000
 20
189.999997201
 30
0.500002799
 11
0.000000000
 21
189.999997201
 31
0.500002799
  0
ARC
  5
AE2
330
A02
100
AcDbEntity
  8
LinearPattern
100
AcDbCircle
 10
3.000000000
 20
196.999997201
 30
4.000001400
 40
0.000000000
100
AcDbArc
 50
180.000000000
 51
-90.000000000
  0
LINE
  5
AE3
330
A02
100
AcDbEntity
  8
LinearPattern
100
AcDbLine
 10
3.000000000
 20
193.499998600
 30
4.000001400
 11
0.000000000
 21
193.499998600
 31
4.000001400
  0
ARC
  5
AE4
330
A02
100
AcDbEntity
  8
LinearPattern
100
AcDbCircle
 10
0.000000000
 20
196.999997201
 30
4.000001400
 40
0.000000000
100
AcDbArc
 50
180.000000000
 51
-90.000000000
  0
LINE
  5
AE5
330
A02
100
AcDbEntity
  8
LinearPattern
100
AcDbLine
 10
3.000000000
 20
196.999997201
 30
7.500000000
 11
0.000000000
 21
196.999997201
 31
7.500000000
  0
ARC
  5
AE6
330
A02
100
AcDbEntity
  8
LinearPattern
100
AcDbCircle
 10
3.000000000
 20
197.000000000
 30
4.000001400
 40
3.499998600
100
AcDbArc
 50
90.000000000
 51
180.000000000
  0
LINE
  5
AE7
330
A02
100
AcDbEntity
  8
LinearPattern
100
AcDbLine
 10
3.000000000
 20
196.999997201
 30
7.500000000
 11
0.000000000
 21
196.999997201
 31
7.500000000
  0
ARC
  5
AE8
330
A02
100
AcDbEntity
  8
LinearPattern
100
AcDbCircle
 10
-0.000000000
 20
197.000000000
 30
4.000001400
 40
3.499998600
100
AcDbArc
 50
90.000000000
 51
180.000000000
  0
LINE
  5
AE9
330
A02
100
AcDbEntity
  8
LinearPattern
100
AcDbLine
 10
3.000000000
 20
200.499998600
 30
4.000001400
 11
-0.000000000
 21
200.499998600
 31
4.000001400
  0
ARC
  5
AEA
330
A02
100
AcDbEntity
  8
LinearPattern
100
AcDbCircle
 10
3.000000000
 20
203.999997201
 30
4.000001400
 40
3.499998600
100
AcDbArc
 50
-90.000000000
 51
0.000000000
  0
LINE
  5
AEB
330
A02
100
AcDbEntity
  8
LinearPattern
100
AcDbLine
 10
3.000000000
 20
203.999997201
 30
0.500002799
 11
0.000000000
 21
203.999997201
 31
0.500002799
  0
ARC
  5
AEC
330
A02
100
AcDbEntity
  8
LinearPattern
100
AcDbCircle
 10
0.000000000
 20
203.999997201
 30
4.000001400
 40
3.499998600
100
AcDbArc
 50
-90.000000000
 51
0.000000000
  0
LINE
  5
AED
330
A02
100
AcDbEntity
  8
LinearPattern
100
AcDbLine
 10
3.000000000
 20
200.499998600
 30
4.000001400
 11
-0.000000000
 21
200.499998600
 31
4.000001400
  0
LINE
  5
AEE
330
A02
100
AcDbEntity
  8
LinearPattern
100
AcDbLine
 10
3.000000000
 20
203.999997201
 30
0.500002799
 11
3.000000000
 21
238.999997201
 31
0.500002799
  0
LINE
  5
AEF
330
A02
100
AcDbEntity
  8
LinearPattern
100
AcDbLine
 10
3.000000000
 20
238.999997201
 30
0.500002799
 11
0.000000000
 21
238.999997201
 31
0.500002799
  0
LINE
  5
AF0
330
A02
100
AcDbEntity
  8
LinearPattern
100
AcDbLine
 10
0.000000000
 20
238.999997201
 30
0.500002799
 11
0.000000000
 21
203.999997201
 31
0.500002799
  0
LINE
  5
AF1
330
A02
100
AcDbEntity
  8
LinearPattern
100
AcDbLine
 10
3.000000000
 20
203.999997201
 30
0.500002799
 11
0.000000000
 21
203.999997201
 31
0.500002799
  0
ARC
  5
AF2
330
A02
100
AcDbEntity
  8
LinearPattern
100
AcDbCircle
 10
3.000000000
 20
239.000000000
 30
4.000001400
 40
0.000002799
100
AcDbArc
 50
-89.999999982
 51
90.000000000
  0
LINE
  5
AF3
330
A02
100
AcDbEntity
  8
LinearPattern
100
AcDbLine
 10
3.000000000
 20
242.499998600
 30
4.000001400
 11
0.000000000
 21
242.499998600
 31
4.000001400
  0
ARC
  5
AF4
330
A02
100
AcDbEntity
  8
LinearPattern
100
AcDbCircle
 10
0.000000000
 20
239.000000000
 30
4.000001400
 40
0.000002799
100
AcDbArc
 50
-89.999999984
 51
90.000000000
  0
LINE
  5
AF5
330
A02
100
AcDbEntity
  8
LinearPattern
100
AcDbLine
 10
3.000000000
 20
238.999997201
 30
0.500002799
 11
0.000000000
 21
238.999997201
 31
0.500002799
  0
ARC
  5
AF6
330
A02
100
AcDbEntity
  8
LinearPattern
100
AcDbCircle
 10
3.000000000
 20
245.999997201
 30
4.000001400
 40
0.000000000
100
AcDbArc
 50
180.000000000
 51
-90.000000000
  0
LINE
  5
AF7
330
A02
100
AcDbEntity
  8
LinearPattern
100
AcDbLine
 10
3.000000000
 20
242.499998600
 30
4.000001400
 11
0.000000000
 21
242.499998600
 31
4.000001400
  0
ARC
  5
AF8
330
A02
100
AcDbEntity
  8
LinearPattern
100
AcDbCircle
 10
0.000000000
 20
245.999997201
 30
4.000001400
 40
0.000000000
100
AcDbArc
 50
180.000000000
 51
-90.000000000
  0
LINE
  5
AF9
330
A02
100
AcDbEntity
  8
LinearPattern
100
AcDbLine
 10
3.000000000
 20
245.999997201
 30
7.500000000
 11
0.000000000
 21
245.999997201
 31
7.500000000
  0
ARC
  5
AFA
330
A02
100
AcDbEntity
  8
LinearPattern
100
AcDbCircle
 10
3.000000000
 20
246.000000000
 30
4.000001400
 40
3.499998600
100
AcDbArc
 50
90.000000000
 51
180.000000000
  0
LINE
  5
AFB
330
A02
100
AcDbEntity
  8
LinearPattern
100
AcDbLine
 10
3.000000000
 20
245.999997201
 30
7.500000000
 11
0.000000000
 21
245.999997201
 31
7.500000000
  0
ARC
  5
AFC
330
A02
100
AcDbEntity
  8
LinearPattern
100
AcDbCircle
 10
-0.000000000
 20
246.000000000
 30
4.000001400
 40
3.499998600
100
AcDbArc
 50
90.000000000
 51
180.000000000
  0
LINE
  5
AFD
330
A02
100
AcDbEntity
  8
LinearPattern
100
AcDbLine
 10
3.000000000
 20
249.499998600
 30
4.000001400
 11
-0.000000000
 21
249.499998600
 31
4.000001400
  0
ARC
  5
AFE
330
A02
100
AcDbEntity
  8
LinearPattern
100
AcDbCircle
 10
3.000000000
 20
252.999997201
 30
4.000001400
 40
3.499998600
100
AcDbArc
 50
-90.000000000
 51
0.000000000
  0
LINE
  5
AFF
330
A02
100
AcDbEntity
  8
LinearPattern
100
AcDbLine
 10
3.000000000
 20
252.999997201
 30
0.500002799
 11
0.000000000
 21
252.999997201
 31
0.500002799
  0
ARC
  5
B00
330
A02
100
AcDbEntity
  8
LinearPattern
100
AcDbCircle
 10
0.000000000
 20
252.999997201
 30
4.000001400
 40
3.499998600
100
AcDbArc
 50
-90.000000000
 51
0.000000000
  0
LINE
  5
B01
330
A02
100
AcDbEntity
  8
LinearPattern
100
AcDbLine
 10
3.000000000
 20
249.499998600
 30
4.000001400
 11
-0.000000000
 21
249.499998600
 31
4.000001400
  0
LINE
  5
B02
330
A02
100
AcDbEntity
  8
LinearPattern
100
AcDbLine
 10
3.000000000
 20
252.999997201
 30
0.500002799
 11
3.000000000
 21
287.999997201
 31
0.500002799
  0
LINE
  5
B03
330
A02
100
AcDbEntity
  8
LinearPattern
100
AcDbLine
 10
3.000000000
 20
287.999997201
 30
0.500002799
 11
0.000000000
 21
287.999997201
 31
0.500002799
  0
LINE
  5
B04
330
A02
100
AcDbEntity
  8
LinearPattern
100
AcDbLine
 10
0.000000000
 20
287.999997201
 30
0.500002799
 11
0.000000000
 21
252.999997201
 31
0.500002799
  0
LINE
  5
B05
330
A02
100
AcDbEntity
  8
LinearPattern
100
AcDbLine
 10
3.000000000
 20
252.999997201
 30
0.500002799
 11
0.000000000
 21
252.999997201
 31
0.500002799
  0
ARC
  5
B06
330
A02
100
AcDbEntity
  8
LinearPattern
100
AcDbCircle
 10
3.000000000
 20
288.000000000
 30
4.000001400
 40
0.000002799
100
AcDbArc
 50
-89.999999982
 51
90.000000000
  0
LINE
  5
B07
330
A02
100
AcDbEntity
  8
LinearPattern
100
AcDbLine
 10
3.000000000
 20
291.499998600
 30
4.000001400
 11
0.000000000
 21
291.499998600
 31
4.000001400
  0
ARC
  5
B08
330
A02
100
AcDbEntity
  8
LinearPattern
100
AcDbCircle
 10
0.000000000
 20
288.000000000
 30
4.000001400
 40
0.000002799
100
AcDbArc
 50
-89.999999984
 51
90.000000000
  0
LINE
  5
B09
330
A02
100
AcDbEntity
  8
LinearPattern
100
AcDbLine
 10
3.000000000
 20
287.999997201
 30
0.500002799
 11
0.000000000
 21
287.999997201
 31
0.500002799
  0
ARC
  5
B0A
330
A02
100
AcDbEntity
  8
LinearPattern
100
AcDbCircle
 10
3.000000000
 20
294.999997201
 30
4.000001400
 40
0.000000000
100
AcDbArc
 50
180.000000000
 51
-90.000000000
  0
LINE
  5
B0B
330
A02
100
AcDbEntity
  8
LinearPattern
100
AcDbLine
 10
3.000000000
 20
291.499998600
 30
4.000001400
 11
0.000000000
 21
291.499998600
 31
4.000001400
  0
ARC
  5
B0C
330
A02
100
AcDbEntity
  8
LinearPattern
100
AcDbCircle
 10
0.000000000
 20
294.999997201
 30
4.000001400
 40
0.000000000
100
AcDbArc
 50
180.000000000
 51
-90.000000000
  0
LINE
  5
B0D
330
A02
100
AcDbEntity
  8
LinearPattern
100
AcDbLine
 10
3.000000000
 20
294.999997201
 30
7.500000000
 11
0.000000000
 21
294.999997201
 31
7.500000000
  0
ARC
  5
B0E
330
A02
100
AcDbEntity
  8
LinearPattern
100
AcDbCircle
 10
3.000000000
 20
295.000000000
 30
4.000001400
 40
3.499998600
100
AcDbArc
 50
90.000000000
 51
180.000000000
  0
LINE
  5
B0F
330
A02
100
AcDbEntity
  8
LinearPattern
100
AcDbLine
 10
3.000000000
 20
294.999997201
 30
7.500000000
 11
0.000000000
 21
294.999997201
 31
7.500000000
  0
ARC
  5
B10
330
A02
100
AcDbEntity
  8
LinearPattern
100
AcDbCircle
 10
-0.000000000
 20
295.000000000
 30
4.000001400
 40
3.499998600
100
AcDbArc
 50
90.000000000
 51
180.000000000
  0
LINE
  5
B11
330
A02
100
AcDbEntity
  8
LinearPattern
100
AcDbLine
 10
3.000000000
 20
298.499998600
 30
4.000001400
 11
-0.000000000
 21
298.499998600
 31
4.000001400
  0
ARC
  5
B12
330
A02
100
AcDbEntity
  8
LinearPattern
100
AcDbCircle
 10
3.000000000
 20
301.999997201
 30
4.000001400
 40
3.499998600
100
AcDbArc
 50
-90.000000000
 51
0.000000000
  0
LINE
  5
B13
330
A02
100
AcDbEntity
  8
LinearPattern
100
AcDbLine
 10
3.000000000
 20
301.999997201
 30
0.500002799
 11
0.000000000
 21
301.999997201
 31
0.500002799
  0
ARC
  5
B14
330
A02
100
AcDbEntity
  8
LinearPattern
100
AcDbCircle
 10
0.000000000
 20
301.999997201
 30
4.000001400
 40
3.499998600
100
AcDbArc
 50
-90.000000000
 51
0.000000000
  0
LINE
  5
B15
330
A02
100
AcDbEntity
  8
LinearPattern
100
AcDbLine
 10
3.000000000
 20
298.499998600
 30
4.000001400
 11
-0.000000000
 21
298.499998600
 31
4.000001400
  0
LINE
  5
B16
330
A02
100
AcDbEntity
  8
LinearPattern
100
AcDbLine
 10
3.000000000
 20
301.999997201
 30
0.500002799
 11
3.000000000
 21
336.999997201
 31
0.500002799
  0
LINE
  5
B17
330
A02
100
AcDbEntity
  8
LinearPattern
100
AcDbLine
 10
3.000000000
 20
336.999997201
 30
0.500002799
 11
0.000000000
 21
336.999997201
 31
0.500002799
  0
LINE
  5
B18
330
A02
100
AcDbEntity
  8
LinearPattern
100
AcDbLine
 10
0.000000000
 20
336.999997201
 30
0.500002799
 11
0.000000000
 21
301.999997201
 31
0.500002799
  0
LINE
  5
B19
330
A02
100
AcDbEntity
  8
LinearPattern
100
AcDbLine
 10
3.000000000
 20
301.999997201
 30
0.500002799
 11
0.000000000
 21
301.999997201
 31
0.500002799
  0
ARC
  5
B1A
330
A02
100
AcDbEntity
  8
LinearPattern
100
AcDbCircle
 10
3.000000000
 20
337.000000000
 30
4.000001400
 40
0.000002799
100
AcDbArc
 50
-89.999999982
 51
90.000000000
  0
LINE
  5
B1B
330
A02
100
AcDbEntity
  8
LinearPattern
100
AcDbLine
 10
3.000000000
 20
340.499998600
 30
4.000001400
 11
0.000000000
 21
340.499998600
 31
4.000001400
  0
ARC
  5
B1C
330
A02
100
AcDbEntity
  8
LinearPattern
100
AcDbCircle
 10
0.000000000
 20
337.000000000
 30
4.000001400
 40
0.000002799
100
AcDbArc
 50
-89.999999984
 51
90.000000000
  0
LINE
  5
B1D
330
A02
100
AcDbEntity
  8
LinearPattern
100
AcDbLine
 10
3.000000000
 20
336.999997201
 30
0.500002799
 11
0.000000000
 21
336.999997201
 31
0.500002799
  0
ARC
  5
B1E
330
A02
100
AcDbEntity
  8
LinearPattern
100
AcDbCircle
 10
3.000000000
 20
343.999997201
 30
4.000001400
 40
0.000000000
100
AcDbArc
 50
180.000000000
 51
-90.000000000
  0
LINE
  5
B1F
330
A02
100
AcDbEntity
  8
LinearPattern
100
AcDbLine
 10
3.000000000
 20
340.499998600
 30
4.000001400
 11
0.000000000
 21
340.499998600
 31
4.000001400
  0
ARC
  5
B20
330
A02
100
AcDbEntity
  8
LinearPattern
100
AcDbCircle
 10
0.000000000
 20
343.999997201
 30
4.000001400
 40
0.000000000
100
AcDbArc
 50
180.000000000
 51
-90.000000000
  0
LINE
  5
B21
330
A02
100
AcDbEntity
  8
LinearPattern
100
AcDbLine
 10
3.000000000
 20
343.999997201
 30
7.500000000
 11
0.000000000
 21
343.999997201
 31
7.500000000
  0
ARC
  5
B22
330
A02
100
AcDbEntity
  8
LinearPattern
100
AcDbCircle
 10
3.000000000
 20
344.000000000
 30
4.000001400
 40
3.499998600
100
AcDbArc
 50
90.000000000
 51
180.000000000
  0
LINE
  5
B23
330
A02
100
AcDbEntity
  8
LinearPattern
100
AcDbLine
 10
3.000000000
 20
343.999997201
 30
7.500000000
 11
0.000000000
 21
343.999997201
 31
7.500000000
  0
ARC
  5
B24
330
A02
100
AcDbEntity
  8
LinearPattern
100
AcDbCircle
 10
-0.000000000
 20
344.000000000
 30
4.000001400
 40
3.499998600
100
AcDbArc
 50
90.000000000
 51
180.000000000
  0
LINE
  5
B25
330
A02
100
AcDbEntity
  8
LinearPattern
100
AcDbLine
 10
3.000000000
 20
347.499998600
 30
4.000001400
 11
-0.000000000
 21
347.499998600
 31
4.000001400
  0
ARC
  5
B26
330
A02
100
AcDbEntity
  8
LinearPattern
100
AcDbCircle
 10
3.000000000
 20
350.999997201
 30
4.000001400
 40
3.499998600
100
AcDbArc
 50
-90.000000000
 51
0.000000000
  0
LINE
  5
B27
330
A02
100
AcDbEntity
  8
LinearPattern
100
AcDbLine
 10
3.000000000
 20
350.999997201
 30
0.500002799
 11
0.000000000
 21
350.999997201
 31
0.500002799
  0
ARC
  5
B28
330
A02
100
AcDbEntity
  8
LinearPattern
100
AcDbCircle
 10
0.000000000
 20
350.999997201
 30
4.000001400
 40
3.499998600
100
AcDbArc
 50
-90.000000000
 51
0.000000000
  0
LINE
  5
B29
330
A02
100
AcDbEntity
  8
LinearPattern
100
AcDbLine
 10
3.000000000
 20
347.499998600
 30
4.000001400
 11
-0.000000000
 21
347.499998600
 31
4.000001400
  0
LINE
  5
B2A
330
A02
100
AcDbEntity
  8
LinearPattern
100
AcDbLine
 10
3.000000000
 20
350.999997201
 30
0.500002799
 11
3.000000000
 21
385.999997201
 31
0.500002799
  0
LINE
  5
B2B
330
A02
100
AcDbEntity
  8
LinearPattern
100
AcDbLine
 10
3.000000000
 20
385.999997201
 30
0.500002799
 11
0.000000000
 21
385.999997201
 31
0.500002799
  0
LINE
  5
B2C
330
A02
100
AcDbEntity
  8
LinearPattern
100
AcDbLine
 10
0.000000000
 20
385.999997201
 30
0.500002799
 11
0.000000000
 21
350.999997201
 31
0.500002799
  0
LINE
  5
B2D
330
A02
100
AcDbEntity
  8
LinearPattern
100
AcDbLine
 10
3.000000000
 20
350.999997201
 30
0.500002799
 11
0.000000000
 21
350.999997201
 31
0.500002799
  0
ARC
  5
B2E
330
A02
100
AcDbEntity
  8
LinearPattern
100
AcDbCircle
 10
3.000000000
 20
386.000000000
 30
4.000001400
 40
0.000002799
100
AcDbArc
 50
-89.999999982
 51
90.000000000
  0
LINE
  5
B2F
330
A02
100
AcDbEntity
  8
LinearPattern
100
AcDbLine
 10
3.000000000
 20
389.499998600
 30
4.000001400
 11
0.000000000
 21
389.499998600
 31
4.000001400
  0
ARC
  5
B30
330
A02
100
AcDbEntity
  8
LinearPattern
100
AcDbCircle
 10
0.000000000
 20
386.000000000
 30
4.000001400
 40
0.000002799
100
AcDbArc
 50
-89.999999984
 51
90.000000000
  0
LINE
  5
B31
330
A02
100
AcDbEntity
  8
LinearPattern
100
AcDbLine
 10
3.000000000
 20
385.999997201
 30
0.500002799
 11
0.000000000
 21
385.999997201
 31
0.500002799
  0
ARC
  5
B32
330
A02
100
AcDbEntity
  8
LinearPattern
100
AcDbCircle
 10
3.000000000
 20
392.999997201
 30
4.000001400
 40
0.000000000
100
AcDbArc
 50
180.000000000
 51
-90.000000000
  0
LINE
  5
B33
330
A02
100
AcDbEntity
  8
LinearPattern
100
AcDbLine
 10
3.000000000
 20
389.499998600
 30
4.000001400
 11
0.000000000
 21
389.499998600
 31
4.000001400
  0
ARC
  5
B34
330
A02
100
AcDbEntity
  8
LinearPattern
100
AcDbCircle
 10
0.000000000
 20
392.999997201
 30
4.000001400
 40
0.000000000
100
AcDbArc
 50
180.000000000
 51
-90.000000000
  0
LINE
  5
B35
330
A02
100
AcDbEntity
  8
LinearPattern
100
AcDbLine
 10
3.000000000
 20
392.999997201
 30
7.500000000
 11
0.000000000
 21
392.999997201
 31
7.500000000
  0
LINE
  5
B36
330
A02
100
AcDbEntity
  8
LinearPattern
100
AcDbLine
 10
-0.000000000
 20
392.999997201
 30
7.500000000
 11
-0.000000000
 21
394.000000000
 31
7.500000000
  0
LINE
  5
B37
330
A02
100
AcDbEntity
  8
LinearPattern
100
AcDbLine
 10
-0.000000000
 20
394.000000000
 30
7.500000000
 11
3.000000000
 21
394.000000000
 31
7.500000000
  0
LINE
  5
B38
330
A02
100
AcDbEntity
  8
LinearPattern
100
AcDbLine
 10
3.000000000
 20
392.999997201
 30
7.500000000
 11
3.000000000
 21
394.000000000
 31
7.500000000
  0
LINE
  5
B39
330
A02
100
AcDbEntity
  8
LinearPattern
100
AcDbLine
 10
3.000000000
 20
392.999997201
 30
7.500000000
 11
0.000000000
 21
392.999997201
 31
7.500000000
  0
LINE
  5
B3A
330
A02
100
AcDbEntity
  8
LinearPattern
100
AcDbLine
 10
-0.000000000
 20
394.000000000
 30
7.500000000
 11
3.000000000
 21
394.000000000
 31
7.500000000
  0
LINE
  5
B3B
330
A02
100
AcDbEntity
  8
LinearPattern
100
AcDbLine
 10
0.000000000
 20
394.000000000
 30
-0.000000000
 11
3.000000000
 21
394.000000000
 31
-0.000000000
  0
LINE
  5
B3C
330
A02
100
AcDbEntity
  8
LinearPattern
100
AcDbLine
 10
-0.000000000
 20
394.000000000
 30
7.500000000
 11
0.000000000
 21
394.000000000
 31
-0.000000000
  0
LINE
  5
B3D
330
A02
100
AcDbEntity
  8
LinearPattern
100
AcDbLine
 10
3.000000000
 20
394.000000000
 30
7.500000000
 11
3.000000000
 21
394.000000000
 31
-0.000000000
  0
LINE
  5
B3E
330
A02
100
AcDbEntity
  8
LinearPattern
100
AcDbLine
 10
0.000000000
 20
394.000000000
 30
-0.000000000
 11
3.000000000
 21
394.000000000
 31
-0.000000000
  0
LINE
  5
B3F
330
A02
100
AcDbEntity
  8
LinearPattern
100
AcDbLine
 10
0.000000000
 20
397.000000000
 30
-0.000000000
 11
3.000000000
 21
397.000000000
 31
-0.000000000
  0
LINE
  5
B40
330
A02
100
AcDbEntity
  8
LinearPattern
100
AcDbLine
 10
0.000000000
 20
394.000000000
 30
-0.000000000
 11
0.000000000
 21
397.000000000
 31
-0.000000000
  0
LINE
  5
B41
330
A02
100
AcDbEntity
  8
LinearPattern
100
AcDbLine
 10
3.000000000
 20
394.000000000
 30
-0.000000000
 11
3.000000000
 21
397.000000000
 31
-0.000000000
  0
LINE
  5
B42
330
A02
100
AcDbEntity
  8
LinearPattern
100
AcDbLine
 10
0.000000000
 20
397.000000000
 30
-0.000000000
 11
3.000000000
 21
397.000000000
 31
-0.000000000
  0
LINE
  5
B43
330
A02
100
AcDbEntity
  8
LinearPattern
100
AcDbLine
 10
0.000000000
 20
397.000000000
 30
-10.000000000
 11
3.000000000
 21
397.000000000
 31
-10.000000000
  0
LINE
  5
B44
330
A02
100
AcDbEntity
  8
LinearPattern
100
AcDbLine
 10
0.000000000
 20
397.000000000
 30
-0.000000000
 11
0.000000000
 21
397.000000000
 31
-10.000000000
  0
LINE
  5
B45
330
A02
100
AcDbEntity
  8
LinearPattern
100
AcDbLine
 10
3.000000000
 20
397.000000000
 30
-0.000000000
 11
3.000000000
 21
397.000000000
 31
-10.000000000
  0
ENDSEC
  0
SECTION
  2
OBJECTS
  0
DICTIONARY
  5
F000
330
0
100
AcDbDictionary
  3
ACAD_GROUP
350
F001
  0
DICTIONARY
  5
F001
330
F000
100
AcDbDictionary
  0
ENDSEC
  0
EOF